<svg xmlns="http://www.w3.org/2000/svg" fill="none" viewBox="0 0 476 172"><path fill="#9556E1" d="M163.608 129.148c-.272 0-.491-.072-.654-.218-.146-.163-.246-.364-.3-.6l-3.247-17.486c0-.055-.009-.1-.027-.137v-.081c0-.164.055-.301.164-.41.127-.109.263-.163.409-.163h2.4c.455 0 .71.182.764.545l2.265 12.358 2.455-7.993c.054-.145.145-.291.272-.436.146-.164.355-.246.628-.246h1.473c.291 0 .5.082.627.246.128.145.21.291.246.436l2.482 7.966 2.265-12.331c.054-.363.309-.545.763-.545h2.401c.146 0 .273.054.382.163.109.109.164.246.164.41v.081c0 .037-.009.082-.028.137l-3.246 17.486c-.036.236-.136.437-.3.6-.164.146-.382.218-.655.218h-1.827c-.273 0-.491-.072-.655-.218-.146-.145-.246-.3-.3-.464l-3.056-9.111-3.055 9.111c-.073.164-.182.319-.327.464-.146.146-.364.218-.655.218h-1.828Zm19.789 0c-.182 0-.336-.063-.464-.191-.127-.127-.191-.281-.191-.463v-17.759c0-.2.064-.364.191-.491.128-.128.282-.191.464-.191H195.4c.2 0 .364.063.491.191.128.127.191.291.191.491v1.8c0 .182-.063.337-.191.464-.127.127-.291.191-.491.191h-8.975v4.828h8.375c.2 0 .364.064.491.191.127.109.191.264.191.464v1.691c0 .2-.064.364-.191.491-.127.11-.291.164-.491.164h-8.375v4.992h9.193c.2 0 .364.064.491.191.128.128.191.291.191.491v1.801c0 .182-.063.336-.191.463-.127.128-.291.191-.491.191h-12.221Zm16.97 0c-.182 0-.336-.063-.464-.191-.127-.127-.191-.281-.191-.463v-17.787c0-.181.064-.336.191-.463.128-.128.282-.191.464-.191h2.537c.182 0 .336.063.464.191.127.127.191.282.191.463v15.195h8.647c.2 0 .364.064.491.191.128.127.191.291.191.491v1.91c0 .182-.063.336-.191.463-.127.128-.291.191-.491.191h-11.839Zm22.295.273c-1.691 0-3.128-.291-4.31-.873-1.164-.6-2.055-1.446-2.673-2.537-.619-1.109-.964-2.437-1.037-3.983-.018-.745-.027-1.545-.027-2.4s.009-1.673.027-2.455c.073-1.528.418-2.846 1.037-3.956.636-1.109 1.537-1.955 2.7-2.537 1.183-.6 2.61-.9 4.283-.9 1.237 0 2.346.164 3.328.491.983.327 1.819.782 2.51 1.364.691.564 1.228 1.228 1.61 1.991.382.764.582 1.592.6 2.483.018.163-.037.3-.164.409-.109.109-.245.164-.409.164h-2.592c-.2 0-.363-.046-.491-.137-.127-.109-.218-.282-.272-.518-.291-1.2-.792-2.019-1.501-2.455-.709-.437-1.591-.655-2.646-.655-1.218 0-2.191.346-2.919 1.037-.727.673-1.118 1.791-1.173 3.355-.054 1.491-.054 3.019 0 4.583.055 1.564.446 2.692 1.173 3.383.728.673 1.701 1.009 2.919 1.009 1.055 0 1.937-.218 2.646-.655.709-.454 1.21-1.273 1.501-2.455.054-.254.145-.427.272-.518.128-.091.291-.137.491-.137h2.592c.164 0 .3.055.409.164.127.109.182.246.164.409-.018.891-.218 1.719-.6 2.483s-.919 1.437-1.61 2.018c-.691.564-1.527 1.01-2.51 1.337-.982.328-2.091.491-3.328.491Zm18.621 0c-1.618 0-3.01-.263-4.174-.791-1.163-.545-2.073-1.373-2.728-2.482-.654-1.128-1.009-2.528-1.063-4.201-.019-.782-.028-1.555-.028-2.319s.009-1.546.028-2.346c.054-1.655.418-3.037 1.091-4.147.673-1.109 1.591-1.946 2.755-2.509 1.182-.564 2.555-.846 4.119-.846 1.564 0 2.937.282 4.119.846 1.183.563 2.11 1.4 2.783 2.509.673 1.11 1.037 2.492 1.091 4.147.037.8.055 1.582.055 2.346s-.018 1.537-.055 2.319c-.054 1.673-.409 3.073-1.064 4.201-.654 1.109-1.573 1.937-2.755 2.482-1.164.528-2.555.791-4.174.791Zm0-3.137c1.182 0 2.146-.345 2.892-1.037.746-.709 1.146-1.855 1.2-3.437.037-.8.055-1.537.055-2.209 0-.692-.018-1.428-.055-2.21-.036-1.055-.236-1.91-.6-2.564-.346-.673-.818-1.155-1.419-1.446-.6-.309-1.291-.464-2.073-.464-.764 0-1.446.155-2.046.464-.6.291-1.082.773-1.446 1.446-.345.654-.536 1.509-.572 2.564-.019.782-.028 1.518-.028 2.21 0 .672.009 1.409.028 2.209.054 1.582.454 2.728 1.2 3.437.746.692 1.7 1.037 2.864 1.037Zm12.312 2.864c-.2 0-.364-.063-.491-.191-.127-.127-.191-.281-.191-.463v-17.759c0-.2.064-.364.191-.491.127-.128.291-.191.491-.191h2.155c.255 0 .446.072.573.218.127.127.209.227.245.3l5.265 9.821 5.32-9.821c.036-.073.118-.173.245-.3.128-.146.319-.218.573-.218h2.128c.2 0 .364.063.491.191.127.127.191.291.191.491v17.759c0 .182-.064.336-.191.463-.127.128-.291.191-.491.191h-2.291c-.2 0-.364-.063-.491-.191-.11-.127-.164-.281-.164-.463v-11.812l-3.819 7.283a1.628 1.628 0 0 1-.355.437c-.145.109-.336.163-.573.163h-1.118c-.255 0-.455-.054-.6-.163a1.953 1.953 0 0 1-.328-.437l-3.819-7.283v11.812c0 .182-.064.336-.191.463-.127.128-.282.191-.464.191h-2.291Zm22.084 0c-.182 0-.336-.063-.464-.191-.127-.127-.191-.281-.191-.463v-17.759c0-.2.064-.364.191-.491.128-.128.282-.191.464-.191h12.003c.2 0 .364.063.491.191.127.127.191.291.191.491v1.8c0 .182-.064.337-.191.464s-.291.191-.491.191h-8.975v4.828h8.375c.2 0 .364.064.491.191.127.109.191.264.191.464v1.691c0 .2-.064.364-.191.491-.127.11-.291.164-.491.164h-8.375v4.992h9.193c.2 0 .364.064.491.191.128.128.191.291.191.491v1.801c0 .182-.063.336-.191.463-.127.128-.291.191-.491.191h-12.221Zm26.739 0c-.182 0-.337-.063-.464-.191-.127-.127-.191-.281-.191-.463v-15.086h-5.047c-.182 0-.336-.064-.463-.191-.128-.127-.191-.282-.191-.464v-2.018c0-.2.063-.364.191-.491.127-.128.281-.191.463-.191h13.913c.2 0 .364.063.491.191.127.127.191.291.191.491v2.018c0 .182-.064.337-.191.464s-.291.191-.491.191h-5.02v15.086c0 .182-.063.336-.19.463-.128.128-.291.191-.492.191h-2.509Zm18.653.273c-1.619 0-3.01-.263-4.174-.791-1.164-.545-2.073-1.373-2.728-2.482-.655-1.128-1.009-2.528-1.064-4.201a100.7817 100.7817 0 0 1 0-4.665c.055-1.655.418-3.037 1.091-4.147.673-1.109 1.592-1.946 2.756-2.509 1.182-.564 2.555-.846 4.119-.846 1.564 0 2.937.282 4.119.846 1.182.563 2.11 1.4 2.783 2.509.672 1.11 1.036 2.492 1.091 4.147.036.8.054 1.582.054 2.346s-.018 1.537-.054 2.319c-.055 1.673-.409 3.073-1.064 4.201-.655 1.109-1.573 1.937-2.755 2.482-1.164.528-2.556.791-4.174.791Zm0-3.137c1.182 0 2.146-.345 2.891-1.037.746-.709 1.146-1.855 1.201-3.437.036-.8.054-1.537.054-2.209 0-.692-.018-1.428-.054-2.21-.037-1.055-.237-1.91-.6-2.564-.346-.673-.819-1.155-1.419-1.446-.6-.309-1.291-.464-2.073-.464-.764 0-1.446.155-2.046.464-.6.291-1.082.773-1.446 1.446-.346.654-.536 1.509-.573 2.564-.018.782-.027 1.518-.027 2.21 0 .672.009 1.409.027 2.209.055 1.582.455 2.728 1.2 3.437.746.692 1.701 1.037 2.865 1.037ZM98.5818 136.483c7.8962 1.56 8.4932 5.804 12.4792 4.927 2.192-.483 4.177-4.289 4.19-6.113.025-5.146-10.269-10.176-17.6613-9.134-7.3925 1.042-6.3672 8.863.9921 10.32Zm-49.18 8.483c-1.0288 7.984-5.2183 8.861-4.0764 12.786.6271 2.147 4.5311 3.882 6.3754 3.745 5.1338-.318 9.4702-10.937 7.9288-18.244-1.5414-7.307-9.2691-5.742-10.2278 1.713Zm-16.9839-26.03c-3.1408.05-7.3042.27-9.981-8.696-2.2049-7.391-.8598-20.613 5.2968-18.9058 4.932 1.3652 2.8597 5.9781 2.9357 13.1748.076 7.196 6.2069 8.103 6.2069 8.103l-4.4584 6.324Z"/><path fill="url(#a)" fill-rule="evenodd" d="M31.1122 122.088c-.7355-.091-1.317-.368-1.685-.846-1.4538-1.887.9768-6.197 5.4288-9.626 4.2543-3.277 8.8152-4.564 10.4804-3.025 5.0254-.585 11.5467.683 20.6573 2.755 8.2153 1.867 13.2174.381 17.2289-.811 5.4715-1.626 9.0999-2.704 16.5244 6.024 0 0 3.861 14.144-3.5626 24.416.3265 2.154-2.0042 5.74-5.8196 8.678-4.452 3.43-9.2396 4.68-10.6934 2.793-.3643-.473-.4847-1.098-.3905-1.823l-.0678.012c-4.0984 2.788-8.2144 3.685-9.5437 1.959-.2484-.322-.3834-.716-.4143-1.163-.2245-.002-.4506-.004-.6782-.008-3.0665 1.466-5.7637 1.702-6.7922.366-.1514-.196-.2607-.419-.3299-.664-2.906 1.305-5.423 1.467-6.4084.188-.2358-.306-.3694-.676-.4088-1.095-2.0241.567-3.6645.429-4.4154-.546a1.9077 1.9077 0 0 1-.2527-.44c-1.9737.532-3.5686.382-4.3059-.575-.164-.213-.2785-.457-.3464-.727-1.9277.501-3.4815.339-4.2064-.602-.4182-.543-.515-1.286-.3345-2.152-3.1903-1.941-5.486-4.203-7.0866-6.595-.9477-.023-1.692-.307-2.1316-.878-.5723-.743-.5427-1.861-.0246-3.154-.9356-.027-1.6706-.311-2.1063-.877-.8232-1.068-.4009-2.914.9285-4.936-.3836-.146-.6979-.366-.9285-.665-.9634-1.251-.221-3.566 1.685-5.983Z" clip-rule="evenodd"/><path fill="#AD6EF9" d="M34.2907 137.353c-4.9332 6.362-8.9869 4.995-9.991 8.958-.5511 2.176 1.9406 5.647 3.5815 6.482 4.5829 2.333 13.6964-4.619 16.0739-11.707 2.3776-7.088-5.0596-9.668-9.6644-3.733Zm54.3227 8.97c6.2176 5.132 4.7241 9.133 8.6636 10.275 2.1535.617 5.7-1.774 6.579-3.389 2.467-4.521-4.2169-13.839-11.2211-16.421-7.0042-2.582-9.814 4.763-4.0215 9.535Z"/><path fill="url(#b)" d="M116.629 71.9227s.787-1.3105 6.035-10.6835c9.877-17.482-.82-26.9862-3.555-46.0197-1.002-6.993-2.776-14.359-7.045-9.2454-7.084 8.4748-3.574 16.1252-1.252 23.1639-2.61-5.8571-5.033-7.7698-6.564-6.4145-2.878 2.6015-3.381 11.2448.112 20.8449 0 0-3.176-5.8118-5.6054-4.1511-4.5656 3.2177-2.4271 13.0852 2.3484 18.2363 5.228 5.6431 6.688 10.1317 6.544 12.5378-.105 3.526 8.291 2.4888 8.982 1.7313Z"/><path fill="#fff" d="M133.591 85.4419c.651 24.5891-21.311 39.0101-48.4918 39.6961-27.1811.686-49.3185-12.493-49.9689-37.0826-.6504-24.5895 21.9401-43.2029 49.1425-43.2286 18.7762-.0065 48.6732 16.0048 49.3182 40.6151Z"/><path stroke="#F088FE" stroke-linecap="round" stroke-linejoin="round" stroke-width="2.7099" d="M95.1014 93.4985s4.0481 9.9075 5.9556 5.794c.932-2.1997 1.773-4.9595 2.305-6.7768 0 0 3.789 8.5203 6.105 5.3769 2.317-3.1435 1.043-8.4955 1.043-8.4955"/><path fill="#003451" d="M77.8138 93.9044c3.0981.7848 6.2462-1.0919 7.0315-4.1917.7852-3.0999-1.0897-6.249-4.1878-7.0339-3.0981-.7848-6.2462 1.0919-7.0314 4.1918-.7853 3.0999 1.0896 6.249 4.1877 7.0338Z"/><path fill="url(#c)" d="M61.6972 86.7491s-.465-1.45-3.9484-11.6583c-6.4889-19.0187-20.6969-17.3331-36.7145-27.9521-5.8833-3.8884-12.5347-7.4608-11.5934-.883 1.6653 10.9467 9.6561 13.3928 16.445 16.3783-6.101-1.9341-9.1446-1.3952-9.1513.6459-.0049 3.9179 6.1452 9.9945 15.629 13.7736 0 0-6.4468-1.4888-6.7797 1.4022-.652 5.5524 8.1418 10.5224 15.1288 10.3605 7.7201-.1648 12.0081 1.743 13.7217 3.476 2.5279 2.4167 7.3482-4.5223 7.2628-5.5431Z"/><path fill="#003451" d="M120.679 87.5372c3.098.7848 6.246-1.0919 7.032-4.1917.785-3.0999-1.09-6.249-4.188-7.0338-3.098-.7849-6.246 1.0919-7.032 4.1917-.785 3.0999 1.09 6.249 4.188 7.0338Z"/><ellipse fill="#fff" rx="12.3363" ry="5.2297" transform="scale(-1 1) rotate(-23.39 72.7958 267.56)"/><ellipse fill="#fff" rx="12.3363" ry="5.2297" transform="scale(-1 1) rotate(-11.516 189.0345 422.6892)"/><ellipse fill="#fff" rx="12.3363" ry="5.2297" transform="scale(-1 1) rotate(-11.516 201.011 325.2618)"/><ellipse fill="#fff" rx="12.3363" ry="5.2297" transform="scale(-1 1) rotate(-11.516 244.6018 308.6038)"/><path fill="#9556E1" d="M377.914 134.796c-7.896 1.559-8.493 5.804-12.479 4.927-2.192-.483-4.177-4.29-4.19-6.113-.025-5.146 10.269-10.177 17.661-9.135 7.393 1.043 6.368 8.863-.992 10.321Zm49.18 8.482c1.029 7.984 5.219 8.861 4.077 12.786-.627 2.148-4.531 3.882-6.376 3.746-5.134-.319-9.47-10.937-7.929-18.244 1.542-7.307 9.27-5.742 10.228 1.712Zm16.984-26.029c3.141.049 7.304.269 9.981-8.696 2.205-7.391.86-20.6135-5.297-18.9063-4.932 1.3652-2.859 5.9781-2.935 13.1743-.076 7.196-6.207 8.103-6.207 8.103l4.458 6.325Z"/><path fill="url(#d)" fill-rule="evenodd" d="M445.384 120.401c.735-.092 1.317-.368 1.685-.846 1.454-1.887-.977-6.197-5.429-9.627-4.254-3.277-8.815-4.564-10.48-3.025-5.026-.585-11.547.684-20.658 2.755-8.215 1.868-13.217.382-17.229-.81-5.471-1.626-9.099-2.704-16.524 6.023 0 0-3.861 14.144 3.563 24.417-.327 2.153 2.004 5.739 5.819 8.678 4.452 3.429 9.24 4.679 10.694 2.792.364-.473.484-1.098.39-1.823l.068.013c4.098 2.787 8.214 3.684 9.544 1.959.248-.323.383-.716.414-1.164.224-.001.451-.004.678-.007 3.067 1.466 5.764 1.701 6.792.366.152-.197.261-.419.33-.665 2.906 1.305 5.423 1.468 6.409.188.235-.306.369-.676.408-1.095 2.025.567 3.665.43 4.416-.545.104-.135.188-.282.253-.44 1.973.531 3.568.381 4.306-.576.163-.213.278-.456.346-.726 1.928.5 3.481.339 4.206-.602.419-.543.515-1.287.335-2.152 3.19-1.941 5.486-4.204 7.086-6.595.948-.024 1.692-.307 2.132-.878.572-.743.543-1.862.025-3.154.935-.028 1.67-.312 2.106-.877.823-1.069.401-2.914-.929-4.937.384-.145.698-.366.929-.665.963-1.251.221-3.565-1.685-5.982Z" clip-rule="evenodd"/><path fill="#AD6EF9" d="M442.205 135.665c4.934 6.363 8.987 4.995 9.991 8.959.551 2.175-1.94 5.647-3.581 6.482-4.583 2.332-13.696-4.619-16.074-11.707-2.378-7.088 5.06-9.668 9.664-3.734Zm-54.324 8.97c-6.218 5.133-4.724 9.134-8.664 10.276-2.153.617-5.7-1.774-6.579-3.39-2.467-4.52 4.217-13.838 11.221-16.421 7.004-2.582 9.814 4.763 4.022 9.535Z"/><path fill="url(#e)" d="M359.867 70.2352s-.787-1.3105-6.035-10.6835c-9.876-17.482.82-26.9862 3.555-46.0197 1.002-6.993 2.776-14.359 7.045-9.2454 7.084 8.4748 3.574 16.1252 1.252 23.1639 2.611-5.8571 5.033-7.7698 6.564-6.4145 2.878 2.6015 3.381 11.2448-.112 20.8449 0 0 3.177-5.8118 5.606-4.1511 4.565 3.2177 2.427 13.0852-2.349 18.2363-5.228 5.6431-6.687 10.1317-6.544 12.5378.105 3.526-8.291 2.4888-8.982 1.7313Z"/><path fill="#fff" d="M342.903 83.7544c-.65 24.5896 21.311 39.0106 48.492 39.6966 27.181.686 49.318-12.494 49.969-37.0831.65-24.5895-21.94-43.2029-49.143-43.2286-18.776-.0065-48.673 16.0048-49.318 40.6151Z"/><path stroke="#F088FE" stroke-linecap="round" stroke-linejoin="round" stroke-width="2.7099" d="M381.395 91.811s-4.048 9.907-5.956 5.794c-.932-2.1997-1.773-4.9595-2.305-6.7768 0 0-3.789 8.5204-6.105 5.3769-2.316-3.1435-1.043-8.4955-1.043-8.4955"/><path fill="#003451" d="M398.682 92.2169c-3.098.7848-6.246-1.0919-7.031-4.1917-.785-3.0999 1.089-6.249 4.188-7.0339 3.098-.7848 6.246 1.0919 7.031 4.1918.785 3.0999-1.09 6.249-4.188 7.0338Z"/><path fill="url(#f)" d="M414.799 85.0616s.465-1.45 3.948-11.6583c6.489-19.0187 20.697-17.3331 36.715-27.9521 5.883-3.8884 12.534-7.4608 11.593-.883-1.665 10.9467-9.656 13.3928-16.445 16.3783 6.101-1.9341 9.145-1.3952 9.151.6459.005 3.9179-6.145 9.9945-15.629 13.7736 0 0 6.447-1.4888 6.78 1.4022.652 5.5524-8.142 10.5224-15.129 10.3605-7.72-.1648-12.008 1.743-13.721 3.476-2.528 2.4167-7.349-4.5223-7.263-5.5431Z"/><path fill="#003451" d="M355.817 85.8497c-3.098.7848-6.246-1.0919-7.031-4.1917-.786-3.0999 1.089-6.249 4.187-7.0338 3.098-.7849 6.247 1.0919 7.032 4.1917.785 3.0999-1.09 6.249-4.188 7.0338Z"/><ellipse cx="376.259" cy="49.1994" fill="#fff" rx="12.3363" ry="5.2297" transform="rotate(-23.39 376.259 49.1994)"/><ellipse cx="395.916" cy="44.5601" fill="#fff" rx="12.3363" ry="5.2297" transform="rotate(-11.516 395.916 44.5601)"/><ellipse cx="415.608" cy="44.9897" fill="#fff" rx="12.3363" ry="5.2297" transform="rotate(-11.516 415.608 44.9897)"/><ellipse cx="419.811" cy="53.3569" fill="#fff" rx="12.3363" ry="5.2297" transform="rotate(-11.516 419.811 53.3569)"/><g clip-path="url(#g)"><path fill="#9556E1" d="M161.786 154.603c3.136 3.653 7.026 6.545 11.388 8.466 4.362 1.921 9.086 2.823 13.831 2.641a200.852 200.852 0 0 0 25.527-2.206 19.7455 19.7455 0 0 1 0-3.859h1.23a17.1393 17.1393 0 0 0 0 3.623l8.919-1.339a3.3111 3.3111 0 0 1 0-.867c0-7.404 8.765-8.428 8.995-1.339v.709l6.382-1.024a3.931 3.931 0 0 1 0-.945c0-7.877 9.841-9.925 9.841-1.418v.552l8.689-1.654v-.709c0-6.853 6.919-8.586 6.919-1.261v.709c13.592-2.946 27.359-4.973 41.212-6.065 11.609 0 18.452 7.325 18.452 15.045h-1.384c0-7.247-6.381-13.627-17.068-13.627a236.6536 236.6536 0 0 0-30.755 4.175c-.146 1.56-.676 3.058-1.539 4.353-.863 1.295-2.032 2.345-3.398 3.052-1.366.708-2.885 1.05-4.414.994-1.53-.055-3.021-.506-4.335-1.31-2.191 2.053-4.818 3.556-7.674 4.39-2.855.834-5.861.976-8.78.414-2.155 1.698-4.68 2.835-7.358 3.315-2.677.48-5.429.289-8.019-.558-1.104 1.233-2.515 2.134-4.081 2.607a8.7918 8.7918 0 0 1-4.809.08c-1.581-.421-3.019-1.275-4.162-2.469-1.143-1.195-1.947-2.686-2.325-4.314a194.0107 194.0107 0 0 1-25.757 2.285c-4.993.257-9.979-.643-14.585-2.634-4.606-1.991-8.714-5.022-12.018-8.866l1.076-.946Zm64.97 13.312c-.956-.501-1.798-1.201-2.474-2.056-.675-.854-1.168-1.844-1.448-2.906l-8.765 1.339c.354 1.308 1.033 2.5 1.969 3.461.936.96 2.099 1.657 3.375 2.021 1.277.365 2.624.385 3.91.059 1.286-.325 2.469-.986 3.433-1.918Zm3.536-8.507c0-5.513-6.458-4.489-6.458 1.339v.709l6.458-1.103v-.945Zm-6.228 3.309c.25.952.704 1.835 1.329 2.585.625.749 1.406 1.346 2.285 1.747 1.327-1.461 2.186-3.302 2.461-5.278l-6.075.946Zm7.689-1.182c-.249 2.232-1.131 4.341-2.537 6.065 2.196.63 4.501.752 6.748.357s4.381-1.297 6.246-2.641c-.987-.444-1.854-1.128-2.524-1.993-.67-.864-1.123-1.884-1.321-2.97l-6.612 1.182Zm14.916-4.805c0-6.931-7.688-4.726-7.688 1.418v.709l7.688-1.339v-.788Zm-3.46 7.877c1.628-1.467 2.759-3.425 3.23-5.593-2.307 0-4.537.867-6.843 1.182.179.938.571 1.819 1.146 2.572.574.753 1.314 1.356 2.16 1.76l.307.079Zm1.384.394c2.582.331 5.203.088 7.685-.714 2.481-.802 4.764-2.144 6.693-3.934-1.019-.829-1.769-1.955-2.153-3.229l-9.072 1.654c-.467 2.38-1.682 4.539-3.46 6.144l.307.079Zm17.684-11.264c0-5.75-4.459-4.017-4.459 1.26v.473l4.305-.788a4.027 4.027 0 0 0-.153-1.024l.307.079Zm-4.229 3.151c.312 1.034.93 1.942 1.769 2.599.851-.974 1.528-2.094 1.999-3.308l-3.768.709Zm2.768 3.308c1.116.721 2.394 1.136 3.712 1.205 1.318.069 2.63-.211 3.812-.812 1.182-.601 2.192-1.504 2.935-2.621.742-1.117 1.192-2.412 1.305-3.758l-9.38 1.733c-.513 1.576-1.383 3.007-2.537 4.174l.153.079Z"/></g><g clip-path="url(#h)"><path fill="#9556E1" d="M161.786 74.2909c3.136 3.6528 7.026 6.5446 11.388 8.4656 4.362 1.921 9.086 2.8231 13.831 2.6406a200.7413 200.7413 0 0 0 25.527-2.2054 19.7516 19.7516 0 0 1 0-3.8596h1.23a17.1421 17.1421 0 0 0 0 3.6233l8.919-1.3391a3.3066 3.3066 0 0 1 0-.8664c0-7.4041 8.765-8.4281 8.995-1.3391v.709l6.382-1.0241a3.9319 3.9319 0 0 1 0-.9451c0-7.8767 9.841-9.9247 9.841-1.4178v.5513l8.689-1.6541v-.7089c0-6.8527 6.919-8.5856 6.919-1.2602v.7088a309.2385 309.2385 0 0 1 41.212-6.065c11.609 0 18.452 7.3253 18.452 15.0445h-1.384c0-7.2466-6.381-13.6267-17.068-13.6267a236.6528 236.6528 0 0 0-30.755 4.1746c-.146 1.5609-.676 3.0584-1.539 4.3532-.863 1.2949-2.032 2.3449-3.398 3.0524s-2.885 1.0496-4.414.9942c-1.53-.0553-3.021-.5062-4.335-1.3107-2.191 2.0532-4.818 3.5562-7.674 4.3901a18.7024 18.7024 0 0 1-8.78.4147c-2.155 1.6971-4.68 2.8342-7.358 3.3143a16.4516 16.4516 0 0 1-8.019-.5575c-1.104 1.2323-2.515 2.1334-4.081 2.6068a8.79 8.79 0 0 1-4.809.08c-1.581-.4209-3.019-1.2746-4.162-2.4695-1.143-1.1949-1.947-2.6859-2.325-4.3132a193.9762 193.9762 0 0 1-25.757 2.2843c-4.993.2578-9.979-.6425-14.585-2.6337-4.606-1.9912-8.714-5.022-12.018-8.8663l1.076-.9453Zm64.97 13.3117c-.956-.5009-1.798-1.2012-2.474-2.0559-.675-.8546-1.168-1.8447-1.448-2.9064l-8.765 1.339c.354 1.3082 1.033 2.5004 1.969 3.4609.936.9606 2.099 1.6569 3.375 2.0214a7.5129 7.5129 0 0 0 3.91.0593c1.286-.3257 2.469-.9865 3.433-1.9183Zm3.536-8.5069c0-5.5137-6.458-4.4896-6.458 1.3391v.7089l6.458-1.1027v-.9453Zm-6.228 3.3083c.25.9523.704 1.8355 1.329 2.585.625.7496 1.406 1.3465 2.285 1.7472 1.327-1.4604 2.186-3.3021 2.461-5.2774l-6.075.9452Zm7.689-1.1815c-.249 2.2322-1.131 4.3407-2.537 6.065 2.196.63 4.501.7519 6.748.3569 2.247-.3951 4.381-1.2973 6.246-2.6411-.987-.4435-1.854-1.1275-2.524-1.9924-.67-.8649-1.123-1.8844-1.321-2.9699l-6.612 1.1815Zm14.916-4.8048c0-6.9315-7.688-4.726-7.688 1.4178v.7089l7.688-1.339v-.7877Zm-3.46 7.8767c1.628-1.4664 2.759-3.4248 3.23-5.5925-2.307 0-4.537.8665-6.843 1.1816.179.9378.571 1.8191 1.146 2.572.574.7528 1.314 1.3559 2.16 1.7601l.307.0788Zm1.384.3939c2.582.3316 5.203.0881 7.685-.714 2.481-.8021 4.764-2.1438 6.693-3.9333-1.019-.8297-1.769-1.9553-2.153-3.2294l-9.072 1.6541c-.467 2.3803-1.682 4.5383-3.46 6.1438l.307.0788Zm17.684-11.2637c0-5.75-4.459-4.0172-4.459 1.2602v.4726l4.305-.7877a4.0276 4.0276 0 0 0-.153-1.0239l.307.0788Zm-4.229 3.1506c.312 1.0338.93 1.9425 1.769 2.5993a11.153 11.153 0 0 0 1.999-3.3082l-3.768.7089Zm2.768 3.3083c1.116.7213 2.394 1.1363 3.712 1.2052 1.318.0688 2.63-.2108 3.812-.8122 1.182-.6013 2.192-1.504 2.935-2.6212.742-1.1173 1.192-2.4115 1.305-3.7582L263.2 75.63c-.513 1.5768-1.383 3.0072-2.537 4.1747l.153.0788Z"/></g><defs><linearGradient id="b" x1="121.896" x2="105.377" y1="6.0521" y2="71.2625" gradientUnits="userSpaceOnUse"><stop stop-color="#E0C1FD"/><stop offset="1" stop-color="#AD6EF9"/></linearGradient><linearGradient id="c" x1="39.6022" x2="30.1859" y1="49.5925" y2="86.7643" gradientUnits="userSpaceOnUse"><stop stop-color="#E0C1FD"/><stop offset="1" stop-color="#AD6EF9"/></linearGradient><linearGradient id="e" x1="354.6" x2="371.119" y1="4.3646" y2="69.575" gradientUnits="userSpaceOnUse"><stop stop-color="#E0C1FD"/><stop offset="1" stop-color="#AD6EF9"/></linearGradient><linearGradient id="f" x1="436.894" x2="446.31" y1="47.905" y2="85.0768" gradientUnits="userSpaceOnUse"><stop stop-color="#E0C1FD"/><stop offset="1" stop-color="#AD6EF9"/></linearGradient><radialGradient id="a" cx="0" cy="0" r="1" gradientTransform="matrix(-5.41518 34.72773 -136.86802 -21.34217 70.2935 118.746)" gradientUnits="userSpaceOnUse"><stop stop-color="#C8EBFF"/><stop offset=".3229" stop-color="#fff"/><stop offset="1" stop-color="#fff"/></radialGradient><radialGradient id="d" cx="0" cy="0" r="1" gradientTransform="matrix(5.41518 34.72773 -136.86802 21.34217 406.203 117.058)" gradientUnits="userSpaceOnUse"><stop stop-color="#C8EBFF"/><stop offset=".3229" stop-color="#fff"/><stop offset="1" stop-color="#fff"/></radialGradient><clipPath id="g"><path fill="#fff" d="M0 0h162v23H0z" transform="translate(160.786 148.305)"/></clipPath><clipPath id="h"><path fill="#fff" d="M0 0h162v23H0z" transform="translate(160.786 67.9922)"/></clipPath></defs></svg>