<svg xmlns="http://www.w3.org/2000/svg" fill="none" viewBox="0 0 889 155"><mask id="a" width="109" height="151" x="780" y="0" maskUnits="userSpaceOnUse"><path fill="#ad6ef9" fill-rule="evenodd" d="M852.458.2979c6.854 0 12.669 5.0038 14.706 11.9372 1.517-4.9338 5.687-8.4777 10.594-8.4777 6.188 0 11.204 5.6352 11.204 12.5866 0 3.0024-.935 5.7592-2.497 7.9226 1.579 2.7262 2.497 5.9808 2.497 9.4761 0 9.6068-6.932 17.3946-15.484 17.3946-5.875 0-10.986-3.6752-13.609-9.0907-2.02 3.3047-5.407 5.4721-9.244 5.4721-4.071 0-7.635-2.4389-9.597-6.0869-2.049 2.9814-5.262 4.9016-8.874 4.9016-1.2 0-2.356-.2119-3.44-.6043.274 1.0894.42 2.2388.42 3.4266 0 2.5539-.677 4.9301-1.84 6.9145.259-.0132.52-.0198.782-.0198 5.11 0 9.696 2.5226 12.824 6.5198 1.01-2.8961 3.52-4.9468 6.456-4.9468 2.022 0 3.843.9728 5.11 2.5247 3.106-4.2044 7.794-6.8819 13.038-6.8819 9.354 0 16.937 8.5183 16.937 19.0263 0 3.7191-.95 7.189-2.592 10.1202.404 1.0303.628 2.1694.628 3.3674 0 4.6184-3.333 8.3624-7.444 8.3624-2.269 0-4.3-1.1399-5.666-2.9376-.372.0458-.749.0781-1.129.0963-2.82 4.9578-7.762 8.2449-13.388 8.2449-4.75 0-9.013-2.3432-11.922-6.0568-.594.597-1.378.96-2.237.96-1.306 0-2.438-.8386-2.992-2.0626-1.799 1.0105-3.78 1.6746-5.872 1.9141.711 2.559 1.093 5.2804 1.093 8.1022 0 6.911-2.296 13.219-6.077 18.015l.607 1.615 1.72.245c1.918-5.494 6.68-9.384 12.251-9.384 4.319 0 8.153 2.339 10.551 5.951.02-3.623 2.641-6.553 5.871-6.553 2.458 0 4.563 1.698 5.438 4.106 2.834-4.065 7.244-6.677 12.197-6.677 8.552 0 15.484 7.788 15.484 17.395 0 3.87-1.125 7.444-3.027 10.334 1.033 1.189 1.669 2.814 1.669 4.607 0 3.642-2.628 6.595-5.871 6.595-1.47 0-2.814-.607-3.844-1.611-1.057 1.743-2.837 2.887-4.856 2.887-2.498 0-4.632-1.753-5.48-4.224-2.047 3.008-5.275 4.949-8.906 4.949-3.601 0-6.806-1.908-8.855-4.874-2.051 2.548-5.016 4.149-8.314 4.149-3.882 0-7.303-2.218-9.314-5.587-.153 3.126-2.458 5.608-5.28 5.608-1.96 0-3.671-1.198-4.584-2.978-1.952 1.858-4.478 2.978-7.237 2.978-3.299 0-6.265-1.602-8.315-4.15-2.597 2.211-5.834 3.522-9.344 3.522-8.552 0-15.484-7.788-15.484-17.394 0-5.299 2.109-10.045 5.435-13.235-3.029-4.539-4.824-10.179-4.824-16.289 0-5.9549 1.705-11.4626 4.596-15.9407-1.749-2.2202-2.81-5.1392-2.81-8.3367 0-4.0112 1.67-7.5842 4.272-9.8891-.682-.9533-1.09-2.1643-1.09-3.4823 0-1.3383.421-2.5662 1.122-3.5261-3.946-1.9477-6.701-6.3767-6.701-11.5286 0-5.4624 3.097-10.1121 7.427-11.8534-5.479-2.6794-9.31-8.8153-9.31-15.9563 0-9.6068 6.933-17.3946 15.485-17.3946 5.253 0 9.896 2.939 12.695 7.4333 1.724-4.4595 5.679-7.5784 10.282-7.5784 3.86 0 7.264 2.1922 9.279 5.5287.506-3.0646 2.898-5.3853 5.772-5.3853 2.561 0 4.739 1.8423 5.542 4.4116 2.688-5.1496 7.667-8.6072 13.366-8.6072z" clip-rule="evenodd"/></mask><mask id="b" width="129" height="149" x="645" y="2" maskUnits="userSpaceOnUse"><path fill="#ad6ef9" fill-rule="evenodd" d="M702.408 7.9282c-1.639-2.5245-4.293-4.1648-7.287-4.1648-4.978 0-9.014 4.5335-9.014 10.1259v.0939c-2.355-1.6265-5.128-2.5645-8.096-2.5645-8.552 0-15.484 7.7879-15.484 17.3947 0 1.8566.259 3.6453.738 5.323a13.9156 13.9156 0 0 0-2.379-.2041c-8.552 0-15.485 7.7878-15.485 17.3946 0 6.2607 2.945 11.7489 7.363 14.8125-3.04 3.4391-4.917 8.1754-4.917 13.4043 0 7.8499 4.231 14.5894 10.272 17.4967-3.702 4.7746-5.943 11.0146-5.943 17.8436 0 15.01 10.832 27.179 24.194 27.179 5.658 0 10.862-2.181 14.983-5.836 2.658 5.278 7.702 8.841 13.486 8.841 3.138 0 6.058-1.048 8.497-2.851.716 4.788 4.423 8.436 8.889 8.436 3.647 0 6.788-2.433 8.207-5.933 2.549 1.726 5.536 2.719 8.729 2.719 9.354 0 16.937-8.518 16.937-19.026 0-.443-.013-.883-.04-1.318.299.018.601.027.904.027 9.354 0 16.937-8.519 16.937-19.027 0-10.5076-7.583-19.0259-16.937-19.0259-4.874 0-9.267 2.3128-12.357 6.0149-2.091-2.1326-4.867-3.4323-7.914-3.4323-6.503 0-11.774 5.9221-11.774 13.2273 0 1.142.129 2.25.371 3.308-4.254.132-7.915 2.928-9.71 6.956-2.784-3.012-6.569-4.864-10.739-4.864-1.571 0-3.087.263-4.515.751-.853-6.751-3.914-12.7044-8.337-16.9067 2.742-3.3806 4.413-7.8753 4.413-12.8086 0-5.9512-2.432-11.2641-6.241-14.753 5.112-2.1116 8.758-7.6298 8.758-14.1046 0-2.7724-.668-5.3694-1.834-7.5987 1.094.4008 2.263.6175 3.476.6175 4.212 0 7.882-2.6114 9.795-6.4716 1.305 3.7864 4.578 6.4716 8.409 6.4716 2.036 0 3.914-.7582 5.423-2.0369-.128.9-.194 1.8229-.194 2.7633 0 9.6068 6.932 17.3946 15.484 17.3946 6.42 0 11.928-4.3893 14.275-10.6423.76 4.7275 4.442 8.3135 8.869 8.3135 4.979 0 9.014-4.5335 9.014-10.1258 0-4.6034-2.734-8.4894-6.478-9.7198 2.786-2.2897 4.595-5.9898 4.595-10.1647 0-6.9513-5.016-12.5865-11.204-12.5865-1.893 0-3.677.5275-5.241 1.4589-.776-7.4677-6.427-13.2631-13.283-13.2631-5.223 0-9.747 3.3641-11.948 8.2689-1.961-7.0816-7.84-12.2235-14.789-12.2235-4.24 0-8.082 1.9144-10.878 5.0157zm-9.547 15.8151-.026.0284-.025-.0925c.029.0087.058.0173.088.0256z" clip-rule="evenodd"/></mask><mask id="c" width="129" height="148" x="248" y="3" maskUnits="userSpaceOnUse"><path fill="#ad6ef9" fill-rule="evenodd" d="M338.714 7.0402c2.553-2.0833 5.694-3.312 9.091-3.312 4.847 0 9.174 2.5017 12.013 6.4184.668-2.8175 2.955-4.8931 5.674-4.8931 3.242 0 5.871 2.9529 5.871 6.5954 0 1.6498-.54 3.1582-1.431 4.3148 1.55 1.1872 2.568 3.1868 2.568 5.4534 0 2.8092-1.563 5.2082-3.766 6.1588 2.68 2.2998 4.408 5.9271 4.408 10.008 0 4.4668-2.071 8.3902-5.193 10.6242 4.304 3.6107 7.091 9.3785 7.091 15.8776 0 5.5481-2.031 10.5633-5.303 14.1586 1.731 2.2155 2.78 5.1196 2.78 8.2991 0 3.7057-1.425 7.0373-3.694 9.3406 1.969 2.9177 3.137 6.555 3.137 10.498 0 3.315-.825 6.413-2.258 9.049.198-.022.399-.034.602-.034 3.242 0 5.871 2.953 5.871 6.596 0 2.853-1.613 5.283-3.871 6.202 2.437 2.309 3.985 5.764 3.985 9.626 0 6.951-5.017 12.586-11.205 12.586-3.114 0-5.931-1.427-7.962-3.731-1.045 1.816-2.864 3.017-4.932 3.017-2.337 0-4.354-1.533-5.299-3.753-2.034 2.331-4.868 3.777-8.003 3.777-6.188 0-11.204-5.635-11.204-12.586 0-4.561 2.159-8.555 5.392-10.763-2.549-1.51-4.286-4.515-4.286-7.977 0-3.5 1.776-6.534 4.371-8.026-2.768-3.143-4.476-7.464-4.476-12.2334 0-.6838.035-1.3583.103-2.0215-2.84 3.8699-7.14 6.3359-11.953 6.3359-5.746 0-10.76-3.5155-13.433-8.7365-1.986 2.0128-4.617 3.2381-7.502 3.2381-.047 0-.093-.0003-.139-.0009 1.122 1.9605 1.773 4.2933 1.773 6.7973 0 3.578-1.33 6.808-3.464 9.1.691 1.972 1.071 4.12 1.071 6.367 0 3.412-.875 6.594-2.385 9.279 1.946 2.264 3.144 5.346 3.144 8.742 0 6.951-5.017 12.587-11.205 12.587-3.981 0-7.478-2.334-9.465-5.849-2.811 3.222-6.728 5.221-11.061 5.221-8.551 0-15.484-7.788-15.484-17.394 0-5.232 2.056-9.923 5.309-13.112-1.291-2.051-2.049-4.555-2.049-7.257 0-3.784 1.486-7.178 3.838-9.485-1.777-1.653-2.909-4.1502-2.909-6.9444 0-2.7366 1.086-5.1884 2.8-6.8412-2.784-2.2899-4.592-5.9888-4.592-10.162 0-4.0097 1.669-7.5815 4.27-9.8864-.68-.9527-1.087-2.162-1.087-3.4781 0-1.3406.422-2.5705 1.125-3.5311-3.948-1.9468-6.705-6.377-6.705-11.5305 0-6.9514 5.016-12.5866 11.204-12.5866l.043.0001c-4.763-2.9666-7.987-8.6719-7.987-15.2233 0-9.6067 6.933-17.3946 15.484-17.3946 4.353 0 8.286 2.0173 11.099 5.265 2.023-3.2697 5.392-5.41 9.206-5.41 6.187 0 11.204 5.6351 11.204 12.5865 0 3.4899-1.265 6.6481-3.307 8.928 2.806 1.5903 4.73 4.8568 4.73 8.6281 0 4.1613-2.343 7.7079-5.627 9.0664.746 1.6857 1.166 3.5861 1.166 5.5965 0 1.6548-.285 3.2351-.801 4.6824 2.205-1.1144 4.65-1.7345 7.225-1.7345 5.717 0 10.798 3.0573 14.019 7.7959 1.296-6.6761 6.005-11.9197 11.97-13.3085-2.971-1.5209-5.036-4.8862-5.036-8.7933 0-4.1019 2.276-7.6065 5.487-9.0069-4.88-1.3602-8.497-6.3139-8.497-12.2167 0-6.9513 5.017-12.5865 11.205-12.5865 2.761 0 5.289 1.1223 7.242 2.983z" clip-rule="evenodd"/></mask><mask id="d" width="124" height="149" x="116" y="2" maskUnits="userSpaceOnUse"><path fill="#ad6ef9" fill-rule="evenodd" d="M181.099 20.3071c0-9.6068-6.932-17.3946-15.484-17.3946-3.501 0-6.731 1.3054-9.325 3.5066-1.907-1.6888-4.314-2.6965-6.931-2.6965-2.671 0-5.124 1.0504-7.05 2.8036-2.426-1.7741-5.323-2.8049-8.435-2.8049-8.551 0-15.484 7.7878-15.484 17.3946 0 6.598 3.27 12.338 8.089 15.2863-2.941 2.2686-4.869 6.0727-4.869 10.3829 0 4.5756 2.173 8.581 5.424 10.7843-2.656 2.3016-4.367 5.9125-4.367 9.9723 0 3.0879.989 5.916 2.632 8.1059-1.614 1.5943-2.632 3.9311-2.632 6.5352 0 1.9538.573 3.7573 1.541 5.2095-3.648 2.8041-6.041 7.5164-6.041 12.8567 0 5.29 2.349 9.964 5.938 12.777-4.148 1.709-7.108 6.185-7.108 11.438 0 5.26 2.969 9.741 7.127 11.445-3.049.239-5.456 3.093-5.456 6.579 0 3.643 2.629 6.595 5.871 6.595 2.388 0 4.443-1.601 5.36-3.9 2.822 3.342 6.812 5.426 11.236 5.426 4.926 0 9.316-2.585 12.152-6.614 1.983 3.536 5.49 5.884 9.485 5.884 6.188 0 11.204-5.635 11.204-12.586 0-6.943-5.004-12.573-11.181-12.587 2.021-2.277 3.271-5.418 3.271-8.888 0-5.361-2.984-9.939-7.187-11.753 1.773-2.518 2.832-5.7004 2.832-9.1602 0-2.2893-.464-4.457-1.291-6.3912 1.156-.8685 1.99-2.2356 2.259-3.8274 2.049 3.5416 5.412 6.0353 9.313 6.6089-1.319 2.0647-2.096 4.5965-2.096 7.3322 0 6.9517 5.016 12.5867 11.204 12.5867.752 0 1.487-.083 2.197-.242-.43 1.596-.661 3.29-.661 5.044 0 8.734 5.73 15.964 13.197 17.206.004 9.603 6.935 17.387 15.485 17.387 4.683 0 8.882-2.336 11.721-6.028l.39-.024c.773 2.629 2.977 4.526 5.577 4.526 3.242 0 5.871-2.952 5.871-6.595 0-1.65-.54-3.159-1.431-4.315 1.549-1.188 2.567-3.187 2.567-5.453 0-2.809-1.564-5.208-3.767-6.159 2.68-2.3 4.409-5.927 4.409-10.008 0-4.467-2.071-8.39-5.194-10.624 4.305-3.611 7.092-9.3786 7.092-15.8777 0-5.5481-2.031-10.5633-5.304-14.1586 1.731-2.2155 2.781-5.1196 2.781-8.2991 0-3.7051-1.426-7.0364-3.694-9.3396 1.97-2.9179 3.138-6.5554 3.138-10.4994 0-3.3177-.827-6.4183-2.261-9.0563.198.0228.4.0345.604.0345 3.242 0 5.871-2.9528 5.871-6.5954 0-2.8535-1.614-5.2837-3.871-6.2027 2.436-2.3088 3.984-5.7641 3.984-9.6255 0-6.9514-5.016-12.5866-11.204-12.5866-3.115 0-5.934 1.4283-7.964 3.7337-1.047-1.813-2.864-3.0124-4.93-3.0124-2.337 0-4.355 1.5334-5.3 3.7532-2.033-2.331-4.867-3.7773-8.002-3.7773-6.188 0-11.205 5.6352-11.205 12.5866 0 4.561 2.16 8.5553 5.393 10.7631-2.548 1.5098-4.285 4.5152-4.285 7.9763 0 3.4994 1.776 6.5329 4.37 8.0258-2.768 3.1424-4.477 7.4639-4.477 12.2337 0 4.6347 1.614 8.8461 4.244 11.9638-.73 1.0185-1.166 2.3132-1.166 3.7224 0 .5419.064 1.0668.185 1.5656a14.048 14.048 0 0 0-.592-.0075c-1.02-4.5092-3.887-8.1906-7.642-9.9693 1.176-1.9915 1.861-4.3809 1.861-6.9501 0-6.4437-4.31-11.7565-9.868-12.4981.572-.9493.907-2.0946.907-3.3277 0-3.2806-2.368-5.9402-5.288-5.9402-.124 0-.246.0048-.368.0142 4.008-3.144 6.629-8.3637 6.629-14.2713z" clip-rule="evenodd"/></mask><mask id="e" width="123" height="149" x="522" y="2" maskUnits="userSpaceOnUse"><path fill="#ad6ef9" fill-rule="evenodd" d="M580.775 133.214c0 9.607 6.932 17.395 15.484 17.395 3.501 0 6.731-1.306 9.325-3.507 1.907 1.689 4.314 2.696 6.931 2.696 2.671 0 5.124-1.05 7.05-2.803 2.426 1.774 5.323 2.805 8.434 2.805 8.552 0 15.485-7.788 15.485-17.395 0-6.598-3.27-12.338-8.089-15.286 2.94-2.269 4.869-6.073 4.869-10.383 0-4.576-2.173-8.5811-5.424-10.7844 2.656-2.3016 4.367-5.9124 4.367-9.9722 0-3.0879-.99-5.916-2.632-8.1059 1.614-1.5943 2.632-3.9311 2.632-6.5352 0-1.9539-.573-3.7573-1.541-5.2095 3.647-2.8041 6.041-7.5164 6.041-12.8566 0-5.29-2.349-9.9637-5.939-12.7769 4.149-1.7092 7.109-6.1852 7.109-11.4379 0-5.2603-2.969-9.7417-7.127-11.4453 3.049-.2395 5.456-3.0935 5.456-6.5791 0-3.6425-2.629-6.5954-5.871-6.5954-2.388 0-4.443 1.6013-5.36 3.9001-2.822-3.3415-6.812-5.4254-11.236-5.4254-4.927 0-9.316 2.5849-12.152 6.6132-1.984-3.535-5.49-5.8836-9.485-5.8836-6.188 0-11.204 5.6352-11.204 12.5866 0 6.9428 5.004 12.5726 11.181 12.5865-2.021 2.2768-3.271 5.4185-3.271 8.8882 0 5.3608 2.984 9.9388 7.187 11.7532-1.773 2.518-2.832 5.7001-2.832 9.1599 0 2.2893.464 4.457 1.291 6.3912-1.156.8686-1.99 2.2356-2.259 3.8276-2.049-3.5417-5.412-6.0355-9.313-6.6091 1.319-2.0647 2.096-4.5966 2.096-7.3322 0-6.9514-5.016-12.5866-11.204-12.5866-.752 0-1.487.0832-2.197.2419.43-1.5965.661-3.2899.661-5.044 0-8.734-5.73-15.9645-13.198-17.2062-.004-9.6031-6.935-17.3866-15.484-17.3866-4.684 0-8.882 2.3362-11.721 6.028-.131.008-.261.016-.39.0242-.773-2.6293-2.977-4.5269-5.577-4.5269-3.242 0-5.871 2.9529-5.871 6.5954 0 1.6502.54 3.1589 1.431 4.3156-1.549 1.1873-2.567 3.1865-2.567 5.4526 0 2.8092 1.564 5.2082 3.766 6.1588-2.679 2.2998-4.408 5.9271-4.408 10.008 0 4.4668 2.071 8.3902 5.194 10.6241-4.305 3.6107-7.092 9.3786-7.092 15.8777 0 5.5481 2.031 10.5633 5.304 14.1586-1.731 2.2155-2.781 5.1196-2.781 8.2991 0 3.7052 1.425 7.0364 3.693 9.3397-1.969 2.9178-3.137 6.5548-3.137 10.4998 0 3.317.827 6.418 2.261 9.056a5.239 5.239 0 0 0-.604-.035c-3.242 0-5.871 2.953-5.871 6.596 0 2.853 1.613 5.283 3.871 6.202-2.437 2.309-3.984 5.765-3.984 9.626 0 6.951 5.016 12.586 11.204 12.586 3.115 0 5.933-1.428 7.964-3.733 1.046 1.813 2.864 3.012 4.93 3.012 2.337 0 4.355-1.533 5.3-3.753 2.033 2.331 4.867 3.777 8.002 3.777 6.188 0 11.204-5.635 11.204-12.586 0-4.561-2.159-8.556-5.392-10.763 2.548-1.51 4.285-4.516 4.285-7.977 0-3.499-1.776-6.533-4.37-8.025 2.768-3.143 4.477-7.464 4.477-12.2342 0-4.6347-1.614-8.8461-4.244-11.9638.73-1.0185 1.166-2.3132 1.166-3.7225 0-.5418-.064-1.0667-.185-1.5655.157.0053.315.008.474.008l.047-.0001.07-.0004c1.021 4.5092 3.888 8.1906 7.643 9.9692-1.176 1.9916-1.862 4.381-1.862 6.9502 0 6.4441 4.311 11.7561 9.869 12.4981-.572.949-.907 2.095-.907 3.328 0 3.28 2.368 5.94 5.288 5.94.124 0 .246-.005.368-.014-4.008 3.144-6.629 8.363-6.629 14.271z" clip-rule="evenodd"/></mask><mask id="f" width="108" height="152" x="0" y="3" maskUnits="userSpaceOnUse"><path fill="#ad6ef9" fill-rule="evenodd" d="M80.1544 37.9734c2.8344 4.0649 7.2441 6.6772 12.1969 6.6772 8.5517 0 15.4847-7.7879 15.4847-17.3947 0-3.8694-1.125-7.4437-3.027-10.3329 1.033-1.1889 1.67-2.8148 1.67-4.6079 0-3.6425-2.628-6.5954-5.871-6.5954-1.4693 0-2.8128.6066-3.8426 1.609-1.0563-1.7454-2.8384-2.8919-4.8588-2.8919-2.4999 0-4.6349 1.7553-5.4817 4.2287-2.0474-3.0072-5.2745-4.9468-8.9049-4.9468-3.5995 0-6.8025 1.9068-8.8524 4.8702-2.0504-2.5498-5.0169-4.152-8.3165-4.152-3.8823 0-7.3034 2.2181-9.3138 5.5878-.1561-3.1232-2.4601-5.6018-5.2794-5.6018-1.9602 0-3.6712 1.1981-4.5845 2.978-1.9524-1.8577-4.4785-2.978-7.2375-2.978-3.2985 0-6.264 1.6011-8.3143 4.1493-2.5968-2.2104-5.8335-3.5219-9.3428-3.5219C7.7271 5.0503.7946 12.8382.7946 22.445c0 5.2306 2.0552 9.9221 5.3079 13.1108-1.291 2.0511-2.0494 4.5551-2.0494 7.2581 0 3.784 1.4864 7.178 3.8391 9.4854-1.7765 1.653-2.9081 4.1498-2.9081 6.9436 0 2.7366 1.0858 5.1884 2.7999 6.8411C5 68.374 3.192 72.0729 3.192 76.2461c0 4.0097 1.669 7.5814 4.2691 9.8864-.68.9526-1.0867 2.162-1.0867 3.4781 0 1.3406.422 2.5705 1.125 3.5311C3.5518 95.0885.7946 99.5186.7946 104.672c0 6.952 5.0163 12.587 11.2042 12.587h.0411c-4.7629 2.966-7.9868 8.672-7.9868 15.223 0 9.607 6.9325 17.395 15.4842 17.395 4.3524 0 8.2853-2.018 11.0984-5.265 2.0236 3.269 5.3922 5.41 9.2057 5.41 3.6666 0 6.9219-1.979 8.9659-5.037.668 2.817 2.955 4.893 5.6737 4.893 1.885 0 3.5625-.998 4.6367-2.549 2.8337 4.08 7.2516 6.703 12.2149 6.703 6.849 0 12.6594-4.995 14.7017-11.92 1.5117 4.943 5.686 8.495 10.5989 8.495 6.1878 0 11.2038-5.635 11.2038-12.586 0-3.001-.934-5.757-2.495-7.92 1.578-2.725 2.495-5.978 2.495-9.472 0-9.607-6.932-17.395-15.4842-17.395-5.8747 0-10.9853 3.676-13.6092 9.091-2.0193-3.305-5.4063-5.472-9.2439-5.472-4.0709 0-7.6347 2.439-9.5967 6.087-2.049-2.981-5.2619-4.902-8.8741-4.902-1.2 0-2.356.212-3.4399.605.2738-1.09.4202-2.239.4202-3.427 0-2.766-.7945-5.3245-2.1412-7.4018.1954.016.3927.0242.5916.0242 3.1059 0 5.7995-1.9828 7.1326-4.883 1.3214 1.0761 2.9465 1.7105 4.7034 1.7105 2.3002 0 4.3743-1.0875 5.837-2.8298 2.8392 3.6791 7.03 6.0061 11.7046 6.0061 4.2577 0 8.1141-1.9305 10.9134-5.0548 1.9764 1.9645 4.575 3.1571 7.4216 3.1571 6.1878 0 11.2038-5.6352 11.2038-12.5866 0-3.5782-1.329-6.8076-3.463-9.0993.767-1.7035 1.198-3.6292 1.198-5.6681 0-6.9513-5.0162-12.5865-11.2041-12.5865-3.3486 0-6.354 1.6501-8.4071 4.2661-1.4443-2.3776-3.8754-3.9384-6.6311-3.9384-3.3352 0-6.195 2.2864-7.4052 5.54-1.4116-1.9067-3.5394-3.1206-5.9196-3.1206-2.6677 0-5.0183 1.5248-6.3989 3.8409-2.0308-3.2065-5.3658-5.2982-9.1357-5.2982-.0469 0-.0937.0004-.1404.001 1.1219-1.9605 1.7727-4.2936 1.7727-6.7974 0-3.5791-1.3298-6.8093-3.4646-9.101.6906-1.9717 1.0699-4.1193 1.0699-6.3664 0-.1056-.0009-.211-.0025-.3162 2.3433 4.0665 6.4169 6.7573 11.05 6.7573 4.3194 0 8.1525-2.3388 10.5506-5.9507.0174 3.6258 2.6393 6.559 5.871 6.559 2.4584 0 4.5639-1.6975 5.4384-4.106z" clip-rule="evenodd"/></mask><mask id="g" width="136" height="149" x="382" y="5" maskUnits="userSpaceOnUse"><path fill="#ad6ef9" fill-rule="evenodd" d="M447.955 6.55c-3.897 1.9742-6.713 5.5357-8.116 9.6983-1.513-1.6733-3.36-3.0218-5.48-3.9037-8.02-3.3353-16.928 1.2644-19.897 10.2736-1.616 4.9021-1.14 10.0997.922 14.3572-1.843 1.4199-3.326 3.4711-4.161 6.004-1.173 3.5582-.823 7.3315.681 10.4175-2.183.8546-4.022 2.7574-4.888 5.3832-.844 2.562-.586 5.2797.506 7.4962-3.315 1.0633-6.151 3.8258-7.44 7.7368-1.238 3.7563-.779 7.7523.943 10.9264-.929.6283-1.681 1.602-2.087 2.833a6.1924 6.1924 0 0 0-.03 3.7696c-4.306.2833-8.265 3.3633-9.858 8.1988-2.148 6.5191.814 13.7601 6.617 16.1731l.05.021c-5.388.921-10.18 5.015-12.206 11.163-2.969 9.009 1.126 19.017 9.145 22.352 4.672 1.943 9.645 1.193 13.57-1.552 1.55 1.678 3.427 3.032 5.574 3.925 8.33 3.464 17.583-1.313 20.667-10.671.825-2.504 1.125-5.082.962-7.581 3.061 2.602 7.261 3.293 11.008 1.395 2.474-1.253 4.325-3.42 5.382-5.986 3.533 2.268 7.951 2.669 11.944.646 1.351-.684 2.549-1.593 3.574-2.669 2.068 1.5 4.432 2.433 6.887 2.709-1.573 4.276-1.632 9.244.195 13.795 3.515 8.757 12.685 12.655 20.48 8.706 2.153-1.091 3.976-2.666 5.413-4.559 2.974 4.488 8.422 6.214 13.149 3.82 5.459-2.765 7.888-9.978 5.427-16.11-1.074-2.675-2.902-4.702-5.074-5.908 1.021-3.861.86-8.137-.73-12.097-1.52-3.786-4.096-6.664-7.162-8.392 1.104-3.072 1.133-6.627-.176-9.8864-1.674-4.1702-5.119-6.8175-8.888-7.3259 1.577-3.3237 1.814-7.4031.33-11.1019-1.131-2.8162-3.069-4.9378-5.37-6.1753.89-2.1994.964-4.8015.01-7.1767-.715-1.7815-1.898-3.1608-3.312-4.0375 2.298-4.2407 2.756-9.6413.802-14.5091-1.935-4.8185-5.781-7.9932-10.079-8.9028 3.15-3.4742 4.207-8.9166 2.287-13.7011-1.83-4.5578-5.847-7.2356-10.03-7.1744a17.092 17.092 0 0 0-.075-.3851c2.269-1.781 3.162-5.1764 1.983-8.1139-1.333-3.3205-4.81-4.7984-7.765-3.301a5.773 5.773 0 0 0-.973.6227c-4.258-3.0542-9.761-3.71-14.711-1.2026zm-2.87 52.2444c1.94 4.1067 5.73 6.5006 9.674 6.461-.351 2.6969-.044 5.5347 1.028 8.2038 1.239 3.0863 3.304 5.462 5.77 6.9461-2.488-.0607-5.026.4857-7.445 1.7113-4.061 2.0573-7.067 5.6637-8.714 9.9177-2.052-2.7239-4.778-4.6306-7.762-5.5429 5.222-4.8747 7.136-13.235 4.209-20.5257-.525-1.3099-1.178-2.5111-1.933-3.5935a10.1784 10.1784 0 0 0 1.584-.6432c1.409-.7137 2.616-1.7236 3.589-2.9346z" clip-rule="evenodd"/></mask><path fill="#ad6ef9" fill-rule="evenodd" d="M852.458.2979c6.854 0 12.669 5.0038 14.706 11.9372 1.517-4.9338 5.687-8.4777 10.594-8.4777 6.188 0 11.204 5.6352 11.204 12.5866 0 3.0024-.935 5.7592-2.497 7.9226 1.579 2.7262 2.497 5.9808 2.497 9.4761 0 9.6068-6.932 17.3946-15.484 17.3946-5.875 0-10.986-3.6752-13.609-9.0907-2.02 3.3047-5.407 5.4721-9.244 5.4721-4.071 0-7.635-2.4389-9.597-6.0869-2.049 2.9814-5.262 4.9016-8.874 4.9016-1.2 0-2.356-.2119-3.44-.6043.274 1.0894.42 2.2388.42 3.4266 0 2.5539-.677 4.9301-1.84 6.9145.259-.0132.52-.0198.782-.0198 5.11 0 9.696 2.5226 12.824 6.5198 1.01-2.8961 3.52-4.9468 6.456-4.9468 2.022 0 3.843.9728 5.11 2.5247 3.106-4.2044 7.794-6.8819 13.038-6.8819 9.354 0 16.937 8.5183 16.937 19.0263 0 3.7191-.95 7.189-2.592 10.1202.404 1.0303.628 2.1694.628 3.3674 0 4.6184-3.333 8.3624-7.444 8.3624-2.269 0-4.3-1.1399-5.666-2.9376-.372.0458-.749.0781-1.129.0963-2.82 4.9578-7.762 8.2449-13.388 8.2449-4.75 0-9.013-2.3432-11.922-6.0568-.594.597-1.378.96-2.237.96-1.306 0-2.438-.8386-2.992-2.0626-1.799 1.0105-3.78 1.6746-5.872 1.9141.711 2.559 1.093 5.2804 1.093 8.1022 0 6.911-2.296 13.219-6.077 18.015l.607 1.615 1.72.245c1.918-5.494 6.68-9.384 12.251-9.384 4.319 0 8.153 2.339 10.551 5.951.02-3.623 2.641-6.553 5.871-6.553 2.458 0 4.563 1.698 5.438 4.106 2.834-4.065 7.244-6.677 12.197-6.677 8.552 0 15.484 7.788 15.484 17.395 0 3.87-1.125 7.444-3.027 10.334 1.033 1.189 1.669 2.814 1.669 4.607 0 3.642-2.628 6.595-5.871 6.595-1.47 0-2.814-.607-3.844-1.611-1.057 1.743-2.837 2.887-4.856 2.887-2.498 0-4.632-1.753-5.48-4.224-2.047 3.008-5.275 4.949-8.906 4.949-3.601 0-6.806-1.908-8.855-4.874-2.051 2.548-5.016 4.149-8.314 4.149-3.882 0-7.303-2.218-9.314-5.587-.153 3.126-2.458 5.608-5.28 5.608-1.96 0-3.671-1.198-4.584-2.978-1.952 1.858-4.478 2.978-7.237 2.978-3.299 0-6.265-1.602-8.315-4.15-2.597 2.211-5.834 3.522-9.344 3.522-8.552 0-15.484-7.788-15.484-17.394 0-5.299 2.109-10.045 5.435-13.235-3.029-4.539-4.824-10.179-4.824-16.289 0-5.9549 1.705-11.4626 4.596-15.9407-1.749-2.2202-2.81-5.1392-2.81-8.3367 0-4.0112 1.67-7.5842 4.272-9.8891-.682-.9533-1.09-2.1643-1.09-3.4823 0-1.3383.421-2.5662 1.122-3.5261-3.946-1.9477-6.701-6.3767-6.701-11.5286 0-5.4624 3.097-10.1121 7.427-11.8534-5.479-2.6794-9.31-8.8153-9.31-15.9563 0-9.6068 6.933-17.3946 15.485-17.3946 5.253 0 9.896 2.939 12.695 7.4333 1.724-4.4595 5.679-7.5784 10.282-7.5784 3.86 0 7.264 2.1922 9.279 5.5287.506-3.0646 2.898-5.3853 5.772-5.3853 2.561 0 4.739 1.8423 5.542 4.4116 2.688-5.1496 7.667-8.6072 13.366-8.6072z" clip-rule="evenodd"/><g mask="url(#a)"><path fill="#9853f7" d="M806.969 141.798c-16.832 8.479-26.266-12.494-22.641-19.522-1.142.558-3.466 1.718-3.625 1.896-.159.179-.96 6.731-1.34 9.985l5.511 16.175c8.176.447 24.687 1.339 25.323 1.339.794 0 41.46.725 42.502.725 1.043 0 24.976-.613 27.309-.669 2.334-.056 11.023-3.068 11.271-3.403.199-.267-.612-18.927-1.042-28.224-.232-1.022-1.917-3.748-6.803-6.47 5.76 11.825 3.029 16.622-.744 22.981 2.184 4.797-1.788 7.753-5.015 5.243-4.32 5.41-7.597 1.283-9.98-2.566-8.789 8.59-12.91 2.51-17.578-1.004-7.298 8.925-14.597 4.741-18.619.279-1.788 7.474-6.703 5.745-8.441.725-5.561 8.534-11.917 4.351-16.088 2.51z"/><path fill="#cea6ff" d="M851.806 123.391c-8.024-9.727-19.695-4.685-24.528-.948-.298-.688-.924-2.175-1.043-2.622-.149-.557 7.547-7.251 8.242-7.585.557-.268 11.619-.447 17.081-.502l10.377-.781 7.15-3.626c2.384-.167 8.233.58 12.562 4.909-9.285-4.909-17.825 5.187-20.407 8.98-2.979-6.47-8.49-2.175-9.434 2.175z"/><path fill="#9853f7" d="M835.768 88.1393c-2.463 3.9715-8.309 3.6628-10.924 3.0121 1.391 2.8112 4.651 3.514 6.108 3.514 4.981 2.8819 15.422 8.6456 17.328 8.6456 2.384 0 11.52-2.008 14.648-2.622 3.128-.613 15.541-5.5774 17.031-6.0236 1.191-.357 1.886-6.0984 2.085-8.9245l.794-12.1597c.232-.6322.308-3.079-1.241-7.809-.894 13.1079-2.731 9.817-5.164 14.2793.199 7.3627-5.313 8.0878-10.327 5.6894-8.988 9.2592-20.606 6.2472-24.628 3.7371-1.589 2.0638-3.327.8925-5.71-1.3387z"/><path fill="#cea6ff" d="M839.293 59.1345c-9.215-6.8719-16.782-2.1568-19.414 1.0598 15.045-4.4623 20.06 4.9643 21.5 8.3668 2.284-7.5859 9.781-7.307 11.916-4.6854 11.164-11.6966 25.571-5.4663 28.004.8367l-1.092-7.0839c-4.403-1.915-13.396-5.7451-14.151-5.7451-.943 0-14.598 3.4582-15.69 3.4582-1.093 0-4.767 1.506-11.073 3.7929z"/><path fill="#9853f7" d="M840.683 36.0981c-5.322 9.1923-13.737 6.024-17.279 3.2909.993 4.5069 4.453 6.712 6.058 7.2512l19.712 3.6814 13.506-.2789 15.988 2.6216c2.598-2.5658 7.825-7.7421 7.944-7.9206.149-.2231 2.93-4.0718 2.582-8.0321-11.569 19.6898-27.508 7.6417-29.146-1.3386-8.391 9.9285-14.648 4.518-19.365.7251z"/><path fill="#cea6ff" d="M808.26 16.4082c-10.056-14.0395-26.316-6.1355-28.252 7.7532-.579-2.7145-1.738-8.2551-1.738-8.7013 0-.5578 4.32-8.813 4.568-9.0361.249-.2232 6.505-3.2352 7.15-3.4583.646-.2231 25.82-1.6176 26.167-1.6734.278-.0446 19.149-1.8034 28.55-2.6773 9.947-.0372 29.891-.0892 30.09 0 .198.0893 8.192 5.5779 12.165 8.311 1.092.6321 3.048 3.2685 2.135 8.7571-7.597-17.068-21.798-5.1873-22.592 3.8487-7.845-21.4746-25.522-11.1556-27.806-6.024-3.426-6.2472-9.88-2.6216-10.228 2.9004-8.838-9.6498-17.378-3.0121-20.209 0z"/></g><path fill="#ad6ef9" fill-rule="evenodd" d="M702.408 7.9282c-1.639-2.5245-4.293-4.1648-7.287-4.1648-4.978 0-9.014 4.5335-9.014 10.1259v.0939c-2.355-1.6265-5.128-2.5645-8.096-2.5645-8.552 0-15.484 7.7879-15.484 17.3947 0 1.8566.259 3.6453.738 5.323a13.9156 13.9156 0 0 0-2.379-.2041c-8.552 0-15.485 7.7878-15.485 17.3946 0 6.2607 2.945 11.7489 7.363 14.8125-3.04 3.4391-4.917 8.1754-4.917 13.4043 0 7.8499 4.231 14.5894 10.272 17.4967-3.702 4.7746-5.943 11.0146-5.943 17.8436 0 15.01 10.832 27.179 24.194 27.179 5.658 0 10.862-2.181 14.983-5.836 2.658 5.278 7.702 8.841 13.486 8.841 3.138 0 6.058-1.048 8.497-2.851.716 4.788 4.423 8.436 8.889 8.436 3.647 0 6.788-2.433 8.207-5.933 2.549 1.726 5.536 2.719 8.729 2.719 9.354 0 16.937-8.518 16.937-19.026 0-.443-.013-.883-.04-1.318.299.018.601.027.904.027 9.354 0 16.937-8.519 16.937-19.027 0-10.5076-7.583-19.0259-16.937-19.0259-4.874 0-9.267 2.3128-12.357 6.0149-2.091-2.1326-4.867-3.4323-7.914-3.4323-6.503 0-11.774 5.9221-11.774 13.2273 0 1.142.129 2.25.371 3.308-4.254.132-7.915 2.928-9.71 6.956-2.784-3.012-6.569-4.864-10.739-4.864-1.571 0-3.087.263-4.515.751-.853-6.751-3.914-12.7044-8.337-16.9067 2.742-3.3806 4.413-7.8753 4.413-12.8086 0-5.9512-2.432-11.2641-6.241-14.753 5.112-2.1116 8.758-7.6298 8.758-14.1046 0-2.7724-.668-5.3694-1.834-7.5987 1.094.4008 2.263.6175 3.476.6175 4.212 0 7.882-2.6114 9.795-6.4716 1.305 3.7864 4.578 6.4716 8.409 6.4716 2.036 0 3.914-.7582 5.423-2.0369-.128.9-.194 1.8229-.194 2.7633 0 9.6068 6.932 17.3946 15.484 17.3946 6.42 0 11.928-4.3893 14.275-10.6423.76 4.7275 4.442 8.3135 8.869 8.3135 4.979 0 9.014-4.5335 9.014-10.1258 0-4.6034-2.734-8.4894-6.478-9.7198 2.786-2.2897 4.595-5.9898 4.595-10.1647 0-6.9513-5.016-12.5865-11.204-12.5865-1.893 0-3.677.5275-5.241 1.4589-.776-7.4677-6.427-13.2631-13.283-13.2631-5.223 0-9.747 3.3641-11.948 8.2689-1.961-7.0816-7.84-12.2235-14.789-12.2235-4.24 0-8.082 1.9144-10.878 5.0157zm-9.547 15.8151-.026.0284-.025-.0925c.029.0087.058.0173.088.0256z" clip-rule="evenodd"/><g mask="url(#b)"><path fill="#9853f7" d="M692.868 127.631c-25.621 13.275-38.531-4.24-39.822-21.977l-5.263 7.028c2.251 8.181 6.912 24.699 7.547 25.323l.019.019c.939.923 12.012 11.809 14.083 12.141 2.085.335 27.011 7.028 32.472 7.028 5.462 0 32.87-2.008 44.688-4.908 11.817-2.901 21.052-14.28 22.145-15.061 1.092-.78 6.455-23.427 6.653-23.984.199-.558 2.185-6.805-2.185-11.044 4.171 19.076-13.108 26.439-20.953 19.634 0 18.183-15.094 21.642-22.046 15.394-4.766 7.14-14.3 5.132-14.796-3.012-13.208 9.594-21.947-1.45-22.542-6.581z"/><path fill="#cea6ff" d="M701.656 104.371c-4.965-12.0037-9.285-10.821-16.385-9.3709 9.285 1.8407 13.456 17.6259 13.108 21.8089 10.03-6.302 15.69 1.73 18.868 5.021 2.979-12.272 12.413-9.483 14.35-9.594-.944-14.6143 10.278-12.9967 14.597-11.044 7.23-13.1196 22.578-10.7124 26.416-.837l1.142-5.5222-14.995-13.1079c-7.432.5206-22.97 1.6287-25.671 1.8964-3.376.3347-16.584 17.4587-17.031 18.1277-.447.67-3.376 5.02-14.399 2.622z"/><path fill="#9853f7" d="M710.693 33.365c-6.793 10.2632-15.905 7.5115-19.613 4.8527 2.701 5.0424 5.826 7.0467 7.051 7.4185 6.173 2.2497 18.59 6.7604 18.868 6.805s13.158 9.1291 19.563 13.6657c10.808-.7623 32.512-2.3315 32.87-2.51.357-.1785 2.3-8.3296 3.227-12.3828.431-.9855.685-3.1906-1.738-4.1276.894 10.1516-14.3 13.833-16.732.6693-12.153 17.9621-30.438 1.8965-27.011-9.5381-8.193 6.0798-15.145 1.1713-16.485-4.8527z"/><path fill="#cea6ff" d="M687.555 18.9742c-10.606-8.2106-21.649-3.3468-24.975 6.6376l-7.945-6.6376c3.393-2.2312 10.457-6.7939 11.569-7.1955s14.863-5.2618 21.599-7.6416c6.819-2.3055 20.536-6.9389 20.854-7.0281.397-.1116 33.168 5.8567 36.346 6.303s19.464 11.7692 19.861 12.1597c.318.3123 4.402 7.9391 6.405 11.7134.099.9855-.06 3.6479-1.49 6.4146 0-12.606-10.278-14.7255-17.626-9.9286-11.967-16.1758-22.096-2.2311-25.72 1.2829-6.803-19.5782-21.401-13.7215-24.181-11.7135-6.753-9.2034-15.839 0-14.697 5.6337zm-18.918 19.857c-9.493-4.8192-18.719 1.4503-22.145 5.1874l-.496-4.1834c1.506-3.105 5.61-9.2258 9.98-8.8688 5.461.4462 7.15 2.9006 12.661 7.8648zm9.136 27.1084a.2503.2503 0 0 1 .039-.0076c14.761-2.8806 16.497 4.2518 17.886 10.1035-3.841-10.6509-17.014-10.2303-17.886-10.1035l-.039.0076z"/></g><path fill="#ad6ef9" fill-rule="evenodd" d="M338.714 7.0402c2.553-2.0833 5.694-3.312 9.091-3.312 4.847 0 9.174 2.5017 12.013 6.4184.668-2.8175 2.955-4.8931 5.674-4.8931 3.242 0 5.871 2.9529 5.871 6.5954 0 1.6498-.54 3.1582-1.431 4.3148 1.55 1.1872 2.568 3.1868 2.568 5.4534 0 2.8092-1.563 5.2082-3.766 6.1588 2.68 2.2998 4.408 5.9271 4.408 10.008 0 4.4668-2.071 8.3902-5.193 10.6242 4.304 3.6107 7.091 9.3785 7.091 15.8776 0 5.5481-2.031 10.5633-5.303 14.1586 1.731 2.2155 2.78 5.1196 2.78 8.2991 0 3.7057-1.425 7.0373-3.694 9.3406 1.969 2.9177 3.137 6.555 3.137 10.498 0 3.315-.825 6.413-2.258 9.049.198-.022.399-.034.602-.034 3.242 0 5.871 2.953 5.871 6.596 0 2.853-1.613 5.283-3.871 6.202 2.437 2.309 3.985 5.764 3.985 9.626 0 6.951-5.017 12.586-11.205 12.586-3.114 0-5.931-1.427-7.962-3.731-1.045 1.816-2.864 3.017-4.932 3.017-2.337 0-4.354-1.533-5.299-3.753-2.034 2.331-4.868 3.777-8.003 3.777-6.188 0-11.204-5.635-11.204-12.586 0-4.561 2.159-8.555 5.392-10.763-2.549-1.51-4.286-4.515-4.286-7.977 0-3.5 1.776-6.534 4.371-8.026-2.768-3.143-4.476-7.464-4.476-12.2334 0-.6838.035-1.3583.103-2.0215-2.84 3.8699-7.14 6.3359-11.953 6.3359-5.746 0-10.76-3.5155-13.433-8.7365-1.986 2.0128-4.617 3.2381-7.502 3.2381-.047 0-.093-.0003-.139-.0009 1.122 1.9605 1.773 4.2933 1.773 6.7973 0 3.578-1.33 6.808-3.464 9.1.691 1.972 1.071 4.12 1.071 6.367 0 3.412-.875 6.594-2.385 9.279 1.946 2.264 3.144 5.346 3.144 8.742 0 6.951-5.017 12.587-11.205 12.587-3.981 0-7.478-2.334-9.465-5.849-2.811 3.222-6.728 5.221-11.061 5.221-8.551 0-15.484-7.788-15.484-17.394 0-5.232 2.056-9.923 5.309-13.112-1.291-2.051-2.049-4.555-2.049-7.257 0-3.784 1.486-7.178 3.838-9.485-1.777-1.653-2.909-4.1502-2.909-6.9444 0-2.7366 1.086-5.1884 2.8-6.8412-2.784-2.2899-4.592-5.9888-4.592-10.162 0-4.0097 1.669-7.5815 4.27-9.8864-.68-.9527-1.087-2.162-1.087-3.4781 0-1.3406.422-2.5705 1.125-3.5311-3.948-1.9468-6.705-6.377-6.705-11.5305 0-6.9514 5.016-12.5866 11.204-12.5866l.043.0001c-4.763-2.9666-7.987-8.6719-7.987-15.2233 0-9.6067 6.933-17.3946 15.484-17.3946 4.353 0 8.286 2.0173 11.099 5.265 2.023-3.2697 5.392-5.41 9.206-5.41 6.187 0 11.204 5.6351 11.204 12.5865 0 3.4899-1.265 6.6481-3.307 8.928 2.806 1.5903 4.73 4.8568 4.73 8.6281 0 4.1613-2.343 7.7079-5.627 9.0664.746 1.6857 1.166 3.5861 1.166 5.5965 0 1.6548-.285 3.2351-.801 4.6824 2.205-1.1144 4.65-1.7345 7.225-1.7345 5.717 0 10.798 3.0573 14.019 7.7959 1.296-6.6761 6.005-11.9197 11.97-13.3085-2.971-1.5209-5.036-4.8862-5.036-8.7933 0-4.1019 2.276-7.6065 5.487-9.0069-4.88-1.3602-8.497-6.3139-8.497-12.2167 0-6.9513 5.017-12.5865 11.205-12.5865 2.761 0 5.289 1.1223 7.242 2.983z" clip-rule="evenodd"/><g mask="url(#c)"><path fill="#9853f7" d="M275.488 137.113c-11.618 9.928-29.791 4.127-23.932-16.064-2.88 3.086-8.719 9.437-9.037 10.151-.397.893 1.49 11.602 1.887 12.16s12.016 9.259 13.207 9.148c1.192-.112 29.693 3.235 32.97 3.235 2.621 0 9.301-9.073 12.314-13.61 1.026-2.083.576-7.586-9.434-12.941 4.17 15.395-14.797 21.531-17.975 7.921zm62.761-12.495c-4.767 0-9.533-3.569-7.845-12.159l-6.753 12.159 2.781 26.105c15.855 1.487 47.785 4.373 48.659 4.016s2.946-13.015 3.873-19.3c-.596-2.082-2.86-6.403-7.15-7.028 5.894 14.949-10.129 19.969-15.293 11.825-1.489 4.128-9.335 3.124-9.335-3.123-6.156 10.151-22.145.558-8.937-12.495zm-34.856-35.9209c-6.832 6.2472-12.314 3.9417-14.201 2.008 2.622 6.158 6.786 6.9537 8.441 6.9166 4.734 2.7143 15.214 8.4783 20.06 7.1393 6.057-1.673 8.242-2.789 13.803-14.0559-10.526 8.2552-19.066 4.1276-28.103-2.008z"/><path fill="#cea6ff" d="M296.798 52.0507c.993-4.8639-2.035-8.72-3.674-10.0401 2.88 6.805 0 15.0602-6.265 23.0923 13.257-9.4266 27.516-.1116 32.482 3.6813 2.879-13.4983 10.914-19.5224 16.732-21.14-11.42-2.8447-31.529 1.6176-39.275 4.4065zm-18.677-35.7541c-12.562-10.6537-26.764 6.6935-20.556 19.5782l-8.392-2.231c-.232-8.8316-.506-26.8852.248-28.447.944-1.9522 28.7-10.096 30.189-10.4864 1.191-.3123 14.399 9.3894 20.854 14.2793.646 2.4356 1.212 8.0543-1.688 11.0441-1.788-14.7255-18.769-10.6536-20.655-3.7372zm50.197-4.2948c-5.958 4.5069-3.376 12.8104-1.34 16.3989-2.284-.093-7.081-.3459-7.994-.6136-1.142-.3347-1.838-6.8608-2.086-7.5859-.199-.5801.579-8.6828.993-12.6617C328.649 3.5978 350.582-4.3637 352.25-4.676c1.669-.3124 13.473 5.4848 19.166 8.4225 1.026 1.8779 2.463 6.0464 0 7.6974-2.538-8.9902-10.774-2.1753-11.569 2.5659-6.236-8.6568-17.775-5.9683-20.606.3347-1.158-2.6588-6.319-5.8254-10.923-2.3427z"/></g><path fill="#ad6ef9" fill-rule="evenodd" d="M181.099 20.3071c0-9.6068-6.932-17.3946-15.484-17.3946-3.501 0-6.731 1.3054-9.325 3.5066-1.907-1.6888-4.314-2.6965-6.931-2.6965-2.671 0-5.124 1.0504-7.05 2.8036-2.426-1.7741-5.323-2.8049-8.435-2.8049-8.551 0-15.484 7.7878-15.484 17.3946 0 6.598 3.27 12.338 8.089 15.2863-2.941 2.2686-4.869 6.0727-4.869 10.3829 0 4.5756 2.173 8.581 5.424 10.7843-2.656 2.3016-4.367 5.9125-4.367 9.9723 0 3.0879.989 5.916 2.632 8.1059-1.614 1.5943-2.632 3.9311-2.632 6.5352 0 1.9538.573 3.7573 1.541 5.2095-3.648 2.8041-6.041 7.5164-6.041 12.8567 0 5.29 2.349 9.964 5.938 12.777-4.148 1.709-7.108 6.185-7.108 11.438 0 5.26 2.969 9.741 7.127 11.445-3.049.239-5.456 3.093-5.456 6.579 0 3.643 2.629 6.595 5.871 6.595 2.388 0 4.443-1.601 5.36-3.9 2.822 3.342 6.812 5.426 11.236 5.426 4.926 0 9.316-2.585 12.152-6.614 1.983 3.536 5.49 5.884 9.485 5.884 6.188 0 11.204-5.635 11.204-12.586 0-6.943-5.004-12.573-11.181-12.587 2.021-2.277 3.271-5.418 3.271-8.888 0-5.361-2.984-9.939-7.187-11.753 1.773-2.518 2.832-5.7004 2.832-9.1602 0-2.2893-.464-4.457-1.291-6.3912 1.156-.8685 1.99-2.2356 2.259-3.8274 2.049 3.5416 5.412 6.0353 9.313 6.6089-1.319 2.0647-2.096 4.5965-2.096 7.3322 0 6.9517 5.016 12.5867 11.204 12.5867.752 0 1.487-.083 2.197-.242-.43 1.596-.661 3.29-.661 5.044 0 8.734 5.73 15.964 13.197 17.206.004 9.603 6.935 17.387 15.485 17.387 4.683 0 8.882-2.336 11.721-6.028l.39-.024c.773 2.629 2.977 4.526 5.577 4.526 3.242 0 5.871-2.952 5.871-6.595 0-1.65-.54-3.159-1.431-4.315 1.549-1.188 2.567-3.187 2.567-5.453 0-2.809-1.564-5.208-3.767-6.159 2.68-2.3 4.409-5.927 4.409-10.008 0-4.467-2.071-8.39-5.194-10.624 4.305-3.611 7.092-9.3786 7.092-15.8777 0-5.5481-2.031-10.5633-5.304-14.1586 1.731-2.2155 2.781-5.1196 2.781-8.2991 0-3.7051-1.426-7.0364-3.694-9.3396 1.97-2.9179 3.138-6.5554 3.138-10.4994 0-3.3177-.827-6.4183-2.261-9.0563.198.0228.4.0345.604.0345 3.242 0 5.871-2.9528 5.871-6.5954 0-2.8535-1.614-5.2837-3.871-6.2027 2.436-2.3088 3.984-5.7641 3.984-9.6255 0-6.9514-5.016-12.5866-11.204-12.5866-3.115 0-5.934 1.4283-7.964 3.7337-1.047-1.813-2.864-3.0124-4.93-3.0124-2.337 0-4.355 1.5334-5.3 3.7532-2.033-2.331-4.867-3.7773-8.002-3.7773-6.188 0-11.205 5.6352-11.205 12.5866 0 4.561 2.16 8.5553 5.393 10.7631-2.548 1.5098-4.285 4.5152-4.285 7.9763 0 3.4994 1.776 6.5329 4.37 8.0258-2.768 3.1424-4.477 7.4639-4.477 12.2337 0 4.6347 1.614 8.8461 4.244 11.9638-.73 1.0185-1.166 2.3132-1.166 3.7224 0 .5419.064 1.0668.185 1.5656a14.048 14.048 0 0 0-.592-.0075c-1.02-4.5092-3.887-8.1906-7.642-9.9693 1.176-1.9915 1.861-4.3809 1.861-6.9501 0-6.4437-4.31-11.7565-9.868-12.4981.572-.9493.907-2.0946.907-3.3277 0-3.2806-2.368-5.9402-5.288-5.9402-.124 0-.246.0048-.368.0142 4.008-3.144 6.629-8.3637 6.629-14.2713z" clip-rule="evenodd"/><g mask="url(#d)"><path fill="#9853f7" d="m163.869 95.3906-1.986-18.5185c2.781 13.9446 14.399 12.2713 14.399 12.2713-1.887 17.7376 12.413 17.4026 17.031 15.7856-6.355 15.395 3.674 23.036 9.186 23.929-1.837 13.554 15.591 18.183 20.606 9.594 1.191 4.518 7.249 3.514 7.249-1.73 4.449-1.74 3.873-8.422 1.043-9.984l7.05-1.227c.762 7.326 2.165 22.847 1.688 26.327-.595 4.351-13.207 4.797-14.697 5.244-1.489.446-32.87-6.582-33.168-7.14-.238-.446-19.033-36.554-28.401-54.5514zm-34.806 37.2044c-9.414-1.919-11.09-10.803-10.179-15.618-.828-.521-2.612-1.562-3.128-1.562-.646 0-.944 4.964-1.192 8.088s-.05 12.271-.596 13.833-.199 8.59-.497 9.594 15.343 8.646 16.386 9.036c.834.312 21.433-2.213 31.628-3.514 5.263-2.175 15.849-6.838 16.088-8.088.298-1.562-.298-12.606-1.142-15.562-.676-2.365-4.618-5.225-6.505-6.359l-6.653 2.231c1.605 1.172 6.376 6.705 2.284 12.774-4.091 6.068-11.536.855-13.456-1.674 0 0-2.433 7.809-10.377 8.59-5.699.56-12.661-3.291-12.661-11.769z"/><path fill="#cea6ff" d="M142.916 14.3445c-7.398-8.0878-28.104-1.9523-19.861 19.8013-9.434 0-9.405-24.442-9.683-25.8254-.347-1.7291 3.923-6.0798 4.27-6.1356.279-.0446 14.88-3.8115 22.146-5.6894 6.653-.279 20.039-.8479 20.357-.8925.397-.0558 13.059 3.4583 13.853 4.9085.795 1.4503 8.292 11.8808 8.59 12.7175.238.6694 4.601 21.14 6.753 31.2917l2.83 19.0205 4.618 12.9963c-.795-.7251-2.483-1.004-2.83 1.7849-2.93-9.817-8.143-13.2752-13.506-13.2752 7.647-10.0401-1.589-19.4109-5.859-18.7974 2.88-5.8567-2.185-11.5461-5.412-10.7652 8.788-14.7255-7.1-27.1641-12.662-21.14-4.22-7.6416-12.512-5.4105-13.604 0zm68.074-.8366c-4.718-8.8689-21.411-5.2069-17.726 11.4903-1.556-.1301-4.737-.4128-5.015-.502-.348-.1116-.745-7.307 0-10.0959.745-2.789 2.234-11.1557 2.681-11.6577.447-.502 32.473-2.3984 34.012-2.5657 1.232-.134 10.444 2.3984 14.896 3.6813l1.589 16.622c-.248 1.0226-1.53 3.436-4.668 4.9085 4.668-19.7457-13.456-18.5743-15.988-14.1119-3.028-4.295-9.434-2.287-9.781 2.2311z"/></g><path fill="#ad6ef9" fill-rule="evenodd" d="M580.775 133.214c0 9.607 6.932 17.395 15.484 17.395 3.501 0 6.731-1.306 9.325-3.507 1.907 1.689 4.314 2.696 6.931 2.696 2.671 0 5.124-1.05 7.05-2.803 2.426 1.774 5.323 2.805 8.434 2.805 8.552 0 15.485-7.788 15.485-17.395 0-6.598-3.27-12.338-8.089-15.286 2.94-2.269 4.869-6.073 4.869-10.383 0-4.576-2.173-8.5811-5.424-10.7844 2.656-2.3016 4.367-5.9124 4.367-9.9722 0-3.0879-.99-5.916-2.632-8.1059 1.614-1.5943 2.632-3.9311 2.632-6.5352 0-1.9539-.573-3.7573-1.541-5.2095 3.647-2.8041 6.041-7.5164 6.041-12.8566 0-5.29-2.349-9.9637-5.939-12.7769 4.149-1.7092 7.109-6.1852 7.109-11.4379 0-5.2603-2.969-9.7417-7.127-11.4453 3.049-.2395 5.456-3.0935 5.456-6.5791 0-3.6425-2.629-6.5954-5.871-6.5954-2.388 0-4.443 1.6013-5.36 3.9001-2.822-3.3415-6.812-5.4254-11.236-5.4254-4.927 0-9.316 2.5849-12.152 6.6132-1.984-3.535-5.49-5.8836-9.485-5.8836-6.188 0-11.204 5.6352-11.204 12.5866 0 6.9428 5.004 12.5726 11.181 12.5865-2.021 2.2768-3.271 5.4185-3.271 8.8882 0 5.3608 2.984 9.9388 7.187 11.7532-1.773 2.518-2.832 5.7001-2.832 9.1599 0 2.2893.464 4.457 1.291 6.3912-1.156.8686-1.99 2.2356-2.259 3.8276-2.049-3.5417-5.412-6.0355-9.313-6.6091 1.319-2.0647 2.096-4.5966 2.096-7.3322 0-6.9514-5.016-12.5866-11.204-12.5866-.752 0-1.487.0832-2.197.2419.43-1.5965.661-3.2899.661-5.044 0-8.734-5.73-15.9645-13.198-17.2062-.004-9.6031-6.935-17.3866-15.484-17.3866-4.684 0-8.882 2.3362-11.721 6.0279-.13.008-.261.0161-.39.0243-.773-2.6293-2.978-4.5269-5.577-4.5269-3.242 0-5.871 2.9529-5.871 6.5954 0 1.6502.54 3.1589 1.431 4.3156-1.549 1.1873-2.567 3.1865-2.567 5.4526 0 2.8092 1.564 5.2082 3.766 6.1588-2.679 2.2998-4.408 5.9271-4.408 10.008 0 4.4668 2.071 8.3902 5.194 10.6241-4.305 3.6107-7.092 9.3786-7.092 15.8777 0 5.5481 2.031 10.5633 5.304 14.1586-1.731 2.2155-2.781 5.1196-2.781 8.2991 0 3.7052 1.425 7.0364 3.693 9.3397-1.969 2.9178-3.137 6.5548-3.137 10.4998 0 3.317.827 6.418 2.261 9.056a5.239 5.239 0 0 0-.604-.035c-3.242 0-5.871 2.953-5.871 6.596 0 2.853 1.613 5.283 3.871 6.202-2.437 2.309-3.984 5.765-3.984 9.626 0 6.951 5.016 12.586 11.204 12.586 3.115 0 5.933-1.428 7.964-3.733 1.046 1.813 2.864 3.012 4.93 3.012 2.337 0 4.355-1.533 5.3-3.753 2.033 2.331 4.867 3.777 8.002 3.777 6.188 0 11.204-5.635 11.204-12.586 0-4.561-2.159-8.556-5.392-10.763 2.548-1.51 4.285-4.516 4.285-7.977 0-3.499-1.776-6.533-4.37-8.025 2.768-3.143 4.477-7.464 4.477-12.2342 0-4.6347-1.614-8.8461-4.244-11.9638.73-1.0185 1.166-2.3132 1.166-3.7225 0-.5418-.064-1.0667-.185-1.5655.157.0053.315.008.474.008l.047-.0001.07-.0004c1.021 4.5092 3.888 8.1906 7.643 9.9692-1.176 1.9916-1.862 4.381-1.862 6.9502 0 6.4441 4.311 11.7561 9.869 12.4981-.572.949-.907 2.095-.907 3.328 0 3.28 2.368 5.94 5.288 5.94.124 0 .246-.005.368-.014-4.008 3.144-6.629 8.363-6.629 14.271z" clip-rule="evenodd"/><g mask="url(#e)"><path fill="#cea6ff" d="m598.005 58.1305 1.986 18.5185c-2.78-13.9446-14.399-12.2713-14.399-12.2713 1.887-17.7375-12.413-17.4028-17.031-15.7853 6.356-15.3948-3.674-23.0365-9.186-23.9289 1.837-13.5542-15.591-18.1838-20.606-9.5939-1.191-4.5181-7.249-3.5141-7.249 1.7291-4.449 1.7403-3.873 8.4226-1.042 9.9844l-7.051 1.2271c-.762-7.3256-2.165-22.8469-1.688-26.3274.595-4.3508 13.207-4.797 14.697-5.2432 1.489-.4462 32.87 6.5818 33.168 7.1396.238.4463 19.033 36.5535 28.401 54.5513zm34.806-37.2042c9.415 1.9188 11.09 10.8024 10.179 15.618.828.5206 2.612 1.5617 3.128 1.5617.646 0 .944-4.9642 1.192-8.0878s.05-12.2713.596-13.8331.199-8.5899.497-9.5939-15.343-8.6456-16.386-9.036c-.834-.3124-21.433 2.2125-31.628 3.514-5.263 2.1753-15.849 6.8384-16.088 8.0878-.298 1.5618.298 12.606 1.142 15.5622.676 2.365 4.618 5.2246 6.505 6.3588l6.653-2.2312c-1.605-1.1713-6.376-6.7045-2.284-12.7732 4.091-6.0687 11.536-.8553 13.456 1.6733 0 0 2.433-7.809 10.377-8.5899 5.699-.56 12.661 3.291 12.661 11.7693z"/><path fill="#9853f7" d="M618.958 139.177c7.399 8.087 28.104 1.952 19.861-19.802 9.434 0 9.405 24.442 9.683 25.826.347 1.729-3.923 6.08-4.27 6.135-.278.045-14.88 3.812-22.145 5.69-6.654.279-20.04.848-20.358.892-.397.056-13.059-3.458-13.853-4.908-.794-1.451-8.292-11.881-8.59-12.718-.238-.669-4.601-21.14-6.753-31.292l-2.83-19.0199-4.618-12.9964c.795.7251 2.483 1.004 2.831-1.7849 2.929 9.817 8.143 13.2752 13.505 13.2752-7.646 10.0402 1.589 19.411 5.859 18.797-2.88 5.857 2.185 11.547 5.412 10.766-8.788 14.725 7.1 27.164 12.662 21.14 4.22 7.641 12.512 5.41 13.604 0zm-68.074.836c4.718 8.869 21.411 5.207 17.726-11.49 1.556.13 4.737.413 5.015.502.348.112.745 7.307 0 10.096s-2.234 11.156-2.681 11.658-32.473 2.398-34.012 2.565c-1.231.134-10.444-2.398-14.896-3.681l-1.589-16.622c.249-1.023 1.53-3.436 4.668-4.909-4.668 19.746 13.456 18.575 15.988 14.112 3.029 4.295 9.434 2.287 9.781-2.231z"/></g><path fill="#ad6ef9" fill-rule="evenodd" d="M80.1544 37.9734c2.8344 4.0649 7.2441 6.6772 12.1969 6.6772 8.5517 0 15.4847-7.7879 15.4847-17.3947 0-3.8694-1.125-7.4437-3.027-10.3329 1.033-1.1889 1.67-2.8148 1.67-4.6079 0-3.6425-2.628-6.5954-5.871-6.5954-1.4693 0-2.8128.6066-3.8426 1.609-1.0563-1.7454-2.8384-2.8919-4.8588-2.8919-2.4999 0-4.6349 1.7553-5.4817 4.2287-2.0474-3.0072-5.2745-4.9468-8.9049-4.9468-3.5995 0-6.8025 1.9068-8.8524 4.8702-2.0504-2.5498-5.0169-4.152-8.3165-4.152-3.8823 0-7.3034 2.2181-9.3138 5.5878-.1561-3.1232-2.4601-5.6018-5.2794-5.6018-1.9602 0-3.6712 1.1981-4.5845 2.978-1.9524-1.8577-4.4785-2.978-7.2375-2.978-3.2985 0-6.264 1.6011-8.3143 4.1493-2.5968-2.2104-5.8335-3.5219-9.3428-3.5219C7.7271 5.0503.7946 12.8382.7946 22.445c0 5.2306 2.0552 9.9221 5.3079 13.1108-1.291 2.0511-2.0494 4.5551-2.0494 7.2581 0 3.784 1.4864 7.178 3.8391 9.4854-1.7765 1.653-2.9081 4.1498-2.9081 6.9436 0 2.7366 1.0858 5.1884 2.7999 6.8411C5 68.374 3.192 72.0729 3.192 76.2461c0 4.0097 1.669 7.5814 4.2691 9.8864-.68.9526-1.0867 2.162-1.0867 3.4781 0 1.3406.422 2.5705 1.125 3.5311C3.5518 95.0885.7946 99.5186.7946 104.672c0 6.952 5.0163 12.587 11.2042 12.587h.0411c-4.7629 2.966-7.9868 8.672-7.9868 15.223 0 9.607 6.9325 17.395 15.4842 17.395 4.3524 0 8.2853-2.018 11.0984-5.265 2.0236 3.269 5.3922 5.41 9.2057 5.41 3.6666 0 6.9219-1.979 8.9659-5.037.668 2.817 2.955 4.893 5.6737 4.893 1.885 0 3.5625-.998 4.6367-2.549 2.8337 4.08 7.2516 6.703 12.2149 6.703 6.849 0 12.6594-4.995 14.7017-11.92 1.5117 4.943 5.686 8.495 10.5989 8.495 6.1878 0 11.2038-5.635 11.2038-12.586 0-3.001-.934-5.757-2.495-7.92 1.578-2.725 2.495-5.978 2.495-9.472 0-9.607-6.932-17.395-15.4842-17.395-5.8747 0-10.9853 3.676-13.6092 9.091-2.0193-3.305-5.4063-5.472-9.2439-5.472-4.0709 0-7.6347 2.439-9.5967 6.087-2.049-2.981-5.2619-4.902-8.8741-4.902-1.2 0-2.356.212-3.4399.605.2738-1.09.4202-2.239.4202-3.427 0-2.766-.7945-5.3245-2.1412-7.4018.1954.016.3927.0242.5916.0242 3.1059 0 5.7995-1.9828 7.1326-4.883 1.3214 1.0761 2.9465 1.7105 4.7034 1.7105 2.3002 0 4.3743-1.0875 5.837-2.8298 2.8392 3.6791 7.03 6.0061 11.7046 6.0061 4.2577 0 8.1141-1.9305 10.9134-5.0548 1.9764 1.9645 4.575 3.1571 7.4216 3.1571 6.1878 0 11.2038-5.6352 11.2038-12.5866 0-3.5782-1.329-6.8076-3.463-9.0993.767-1.7035 1.198-3.6292 1.198-5.6681 0-6.9513-5.0162-12.5865-11.2041-12.5865-3.3486 0-6.354 1.6501-8.4071 4.2661-1.4443-2.3776-3.8754-3.9384-6.6311-3.9384-3.3352 0-6.195 2.2864-7.4052 5.54-1.4116-1.9067-3.5394-3.1206-5.9196-3.1206-2.6677 0-5.0183 1.5248-6.3989 3.8409-2.0308-3.2065-5.3658-5.2982-9.1357-5.2982-.0469 0-.0937.0004-.1404.001 1.1219-1.9605 1.7727-4.2936 1.7727-6.7974 0-3.5791-1.3298-6.8093-3.4646-9.101.6906-1.9717 1.0699-4.1193 1.0699-6.3664 0-.1056-.0009-.211-.0025-.3162 2.3433 4.0665 6.4169 6.7573 11.05 6.7573 4.3194 0 8.1525-2.3388 10.5506-5.9507.0174 3.6258 2.6393 6.559 5.871 6.559 2.4584 0 4.5639-1.6975 5.4384-4.106zM447.955 6.55c-3.897 1.9742-6.713 5.5357-8.116 9.6983-1.513-1.6733-3.36-3.0218-5.48-3.9037-8.02-3.3353-16.928 1.2644-19.897 10.2736-1.616 4.9021-1.14 10.0997.922 14.3572-1.843 1.4199-3.326 3.4711-4.161 6.004-1.173 3.5582-.823 7.3315.681 10.4175-2.183.8546-4.022 2.7574-4.888 5.3832-.844 2.562-.586 5.2797.506 7.4962-3.315 1.0633-6.151 3.8258-7.44 7.7368-1.238 3.7563-.779 7.7523.943 10.9264-.929.6283-1.681 1.602-2.087 2.833a6.1924 6.1924 0 0 0-.03 3.7696c-4.306.2833-8.265 3.3633-9.858 8.1988-2.148 6.5191.814 13.7601 6.617 16.1731l.05.021c-5.388.921-10.18 5.015-12.206 11.163-2.969 9.009 1.126 19.017 9.145 22.352 4.672 1.943 9.645 1.193 13.57-1.552 1.55 1.678 3.427 3.032 5.574 3.925 8.33 3.464 17.583-1.313 20.667-10.671.825-2.504 1.125-5.082.962-7.581 3.061 2.602 7.261 3.293 11.008 1.395 2.474-1.253 4.325-3.42 5.382-5.986 3.533 2.268 7.951 2.669 11.944.646 1.351-.684 2.549-1.593 3.574-2.669 2.068 1.5 4.432 2.433 6.887 2.709-1.573 4.276-1.632 9.244.195 13.795 3.515 8.757 12.685 12.655 20.48 8.706 2.153-1.091 3.976-2.666 5.413-4.559 2.974 4.488 8.422 6.214 13.149 3.82 5.459-2.765 7.888-9.978 5.427-16.11-1.074-2.675-2.902-4.702-5.074-5.908 1.021-3.861.86-8.137-.73-12.097-1.52-3.786-4.096-6.664-7.162-8.392 1.104-3.072 1.133-6.627-.176-9.8864-1.674-4.1702-5.119-6.8175-8.888-7.3259 1.577-3.3237 1.814-7.4031.33-11.1019-1.131-2.8162-3.069-4.9378-5.37-6.1753.89-2.1994.964-4.8015.01-7.1767-.715-1.7815-1.898-3.1608-3.312-4.0375 2.298-4.2407 2.756-9.6413.802-14.5091-1.935-4.8185-5.781-7.9932-10.079-8.9028 3.15-3.4742 4.207-8.9166 2.287-13.7011-1.83-4.5578-5.847-7.2356-10.03-7.1744a17.092 17.092 0 0 0-.075-.3851c2.269-1.781 3.162-5.1764 1.983-8.1139-1.333-3.3205-4.81-4.7984-7.765-3.301a5.773 5.773 0 0 0-.973.6227c-4.258-3.0542-9.761-3.71-14.711-1.2026zm-2.87 52.2444c1.94 4.1067 5.73 6.5006 9.674 6.461-.351 2.6969-.044 5.5347 1.028 8.2038 1.239 3.0863 3.304 5.462 5.77 6.9461-2.488-.0607-5.026.4857-7.445 1.7113-4.061 2.0573-7.067 5.6637-8.714 9.9177-2.052-2.7239-4.778-4.6306-7.762-5.5429 5.222-4.8747 7.136-13.235 4.209-20.5257-.525-1.3099-1.178-2.5111-1.933-3.5935a10.1784 10.1784 0 0 0 1.584-.6432c1.409-.7137 2.616-1.7236 3.589-2.9346z" clip-rule="evenodd"/><g mask="url(#f)"><path fill="#9853f7" d="M15.5072 141.464c-7.001-2.734-9.8312-8.646-9.8312-16.511l-3.2274.614c-.96 3.03-2.8799 9.17-2.8799 9.482s1.2248 8.757 1.8372 12.941c6.7527 1.896 20.3575 5.7 20.7548 5.745.4965.056 37.8849 6.303 38.2324 6.861.3476.557 36.594-5.523 41.1119-5.746 3.615-.178 9.948-15.655 12.662-23.371l-7.796-1.283c.429.087.696 9.126-6.256 13.276-6.9512 4.149-12.5288-4.63-14.4487-9.539 0 0-3.7239 8.869-11.2215 10.654-8.362 1.991-12.7772-1.896-14.3992-4.518-.5131 1.246-2.2 3.93-4.8163 4.518-3.1778.714-5.5611-4.574-6.008-7.363 0 0-3.1281 6.024-9.1361 6.024-4.6029 0-7.9775-2.974-9.285-5.633-3.9722 3.849-9.3763 6.158-15.293 3.849zm25.174-49.3644c2.5157 1.8779 8.5501 3.9938 12.5621-2.5658 2.9791 1.1714 7.1499 3.0678 11.0228-1.004 1.8372 3.0678 6.5542 6.4703 13.8531 4.2949 5.8391-1.7402 7.9279-7.1582 8.2423-9.6496 2.4992 3.6813 8.7389 7.5858 14.2995 3.1793 3.426-2.7144 4.371-5.4668 4.307-7.6182l-1.476-3.8163c.613.5511 1.42 1.96 1.476 3.8163l4.283 11.0765c-1.307 2.5658-4.031 7.7309-4.468 7.8648-.437.1338-8.3917 1.7291-12.3142 2.5095-8.2423.614-25.3328 1.785-27.7558 1.562s-12.9924-2.2494-17.9742-3.2349c-1.6551-.1487-5.1838-1.6398-6.0576-6.4145zM3.492 117.59c8.6594 1.919 13.1082-1.506 14.2503-3.458-11.0819 2.142-16.8982-8.181-18.4212-13.61-2.2178 4.89-4.4885 15.15 4.1709 17.068zm66.8317-90.1655c-4.5681 10.8489-19.4638 8.5062-24.1312 3.4583.4767 5.6001 5.0977 10.161 6.4549 11.9645 16.0543 2.8633 47.0905 8.8576 49.9506 8.1436 2.86-.7139 6.422-8.7758 7.845-12.7175.662-4.2391.794-13.8553-3.972-18.4069 2.284 24.9888-24.7272 22.5345-26.3409 13.0801-5.7846 4.8527-11.0974 0-9.8064-5.5221z"/><path fill="#cea6ff" d="M58.4071 55.4532c-5.6405 1.428-14.6972 0-18.5701 8.9245 8.441-6.5818 16.6833-1.3386 17.7757 5.855.993-7.4168 9.7319-7.4168 12.3634-3.4582 1.5393-6.1897 10.2781-7.5284 13.8035-1.2272 2.5322-9.3708 21.0034-6.7474 19.2154 6.805l3.625-16.1758-.446-.0223c-15.6379-.7843-42.1798-2.1154-47.7669-.701zM13.4218 11.2766C3.7297 12.6153 1.108 16.4082 1.108 27.6755c-1.2579-4.9086-4.627-15.9527-4.8653-16.3989-.298-.5578 4.0715-9.7054 4.0715-10.1517 0-.4462 63.5553-7.3627 66.9316-7.3627 2.7011 0 20.9203 3.9416 29.6923 5.9125 3.5089 2.2683 10.5859 8.2106 10.8239 13.833-2.086-9.5938-9.7322-5.3547-10.8239 0-1.291-3.7929-7.945-6.024-10.725-1.004-5.2631-4.5739-13.3069-2.789-17.3784 1.6733-4.4693-8.4782-14.3005-7.028-18.2721-1.6733-2.8799-3.3468-8.243-4.016-9.0368 2.5659-2.9172-8.628-15.3518-6.35-14.847 8.7185.042.3718.0585.7042.0505.9869a28.3385 28.3385 0 0 1-.0505-.9869c-.4829-4.274-4.3404-13.7431-13.257-12.5115zM56.272 106.768c-7.9444.58-13.9855 3.887-14.8461 5.802 10.576-2.287 18.4707 4.405 19.6624 8.254 6.6038-9.148 16.3853-4.574 18.2225-1.172 5.5114-16.621 31.0332-15.337 27.4082 9.148l3.625-4.295c-2.003-7.177-6.088-21.519-6.406-21.474-.317.044-15.0608-2.583-22.8894-2.174-4.6177.576-16.8322 5.331-24.7766 5.911z"/></g><path fill="#cea6ff" d="M226.47 34.3226c4.222.4537 6.44 3.3168 7.021 4.6916-4.956-4.7846-11.641-3.1278-14.365-1.7013.689-1.1858 3.121-3.444 7.344-2.9903zM39.9746 37.7611c4.2222.4536 6.4404 3.3167 7.0218 4.6916-4.9566-4.7846-11.6419-3.1279-14.3649-1.7014.6884-1.1858 3.1208-3.4439 7.3431-2.9902z"/><path fill="#9853f7" d="M535.404 119.198c-4.222-.453-6.44-3.316-7.021-4.691 4.956 4.784 11.641 3.128 14.365 1.701-.689 1.186-3.121 3.444-7.344 2.99zm180.14 16.629c-4.222-.453-6.441-3.317-7.022-4.691 4.957 4.784 11.642 3.127 14.365 1.701-.688 1.186-3.121 3.444-7.343 2.99z"/><path fill="#cea6ff" d="M363.287 74.6668c4.222.4537 6.441 3.3167 7.022 4.6916-4.957-4.7846-11.642-3.1279-14.365-1.7014.689-1.1858 3.121-3.4439 7.343-2.9902zm131.888 16.9229c4.223.4537 6.441 3.3168 7.022 4.6916-4.956-4.7846-11.642-3.1278-14.365-1.7014.689-1.1858 3.121-3.4439 7.343-2.9902zM69.5317 12.9429c4.2222.4537 6.4404 3.3168 7.0218 4.6916-4.9566-4.7846-11.6419-3.1278-14.3649-1.7013.6884-1.1858 3.1208-3.444 7.3431-2.9903zm26.2678 56.445c3.8496.3536 5.4735 3.567 6.0035 4.6384-4.5187-3.7287-10.6139-2.4375-13.0967-1.3259.6277-.9241 3.2435-3.6661 7.0932-3.3125z"/><g fill="#9853f7"><path d="M35.3039 91.3775c5.0025.5155 9.0106-.7046 10.2803-2.1139-.4742 1.667-3.7358 5.3-9.6836 4.4339-5.9479-.8662-7.6491-5.4822-8.1692-7.4241.3671.9967 2.2038 4.5507 7.5725 5.1041zM194.157 105.877c3.766 3.735 7.836 3.916 9.601 3.621-1.259 1.031-7.243 3.033-11.587-1.613s-1.847-10.7339-1.246-12.646c-.228 1.0479-.809 6.629 3.232 10.638zm35.26-28.9599c-5.003-.5156-8.382 2.0395-9.651 3.4487.474-1.6669 4.25-7.2531 10.198-6.3869 5.947.8661 7.134 7.4353 7.654 9.3772-.367-.9967-2.832-5.8857-8.201-6.439zM10.342 52.1388c3.1416.3238 5.6588-.4425 6.4562-1.3275-.2978 1.0469-2.3461 3.3285-6.0815 2.7846-3.7353-.544-4.8037-3.4429-5.1303-4.6625.2306.626 1.384 2.858 4.7556 3.2054zm53.9591 35.4608c5.0025.5155 9.0106-.7046 10.2803-2.1138-.4742 1.6669-3.7358 5.2999-9.6837 4.4338s-7.649-5.4822-8.1692-7.4241c.3672.9967 2.2039 4.5508 7.5726 5.1041z"/><path d="M222.29 71.3926c-3.516-.3623-5.89 1.4331-6.782 2.4233.333-1.1713 2.986-5.0965 7.166-4.4879 4.179.6086 5.013 5.2245 5.378 6.5891-.258-.7004-1.99-4.1357-5.762-4.5245zm-.588 64.7674c3.778.578 6.331-2.286 7.29-3.866-.359 1.869-3.211 8.131-7.703 7.16-4.493-.971-5.389-8.335-5.782-10.512.278 1.117 2.14 6.598 6.195 7.218zM20.0111 51.5486c5.0024.5156 9.0105-.7046 10.2803-2.1138-.4743 1.667-3.7358 5.3-9.6837 4.4338-5.9479-.8661-7.6491-5.4821-8.1692-7.4241.3672.9968 2.2038 4.5508 7.5726 5.1041z"/></g><path fill="#cea6ff" d="M567.715 47.6442c-3.765-3.7355-7.835-3.916-9.601-3.6215 1.259-1.0304 7.243-3.0322 11.587 1.6135s1.848 10.7338 1.246 12.6459c.228-1.0479.809-6.6289-3.232-10.6379z"/><path fill="#9853f7" d="M532.457 76.604c5.003.5156 8.382-2.0395 9.651-3.4488-.474 1.667-4.25 7.2531-10.198 6.387-5.947-.8662-7.134-7.4353-7.654-9.3772.367.9967 2.832 5.8857 8.201 6.439zM407.73 86.0717c5.002.5156 8.381-2.0395 9.651-3.4487-.474 1.6669-4.25 7.2531-10.198 6.3869-5.948-.8661-7.135-7.4353-7.655-9.3772.368.9967 2.833 5.8857 8.202 6.439zm0 49.2113c5.002.516 8.381-2.04 9.651-3.449-.474 1.667-4.25 7.253-10.198 6.387s-7.135-7.435-7.655-9.377c.368.997 2.833 5.886 8.202 6.439zm385.479-48.3489c5.003.357 8.382-1.4126 9.651-2.3887-.474 1.1546-4.25 5.0235-10.198 4.4237-5.948-.5999-7.134-5.1497-7.654-6.4947.367.6903 2.832 4.0764 8.201 4.4597zm14.525 53.0159c5.003.516 8.382-2.039 9.652-3.449-.475 1.667-4.251 7.254-10.198 6.387-5.948-.866-7.135-7.435-7.655-9.377.367.997 2.833 5.886 8.201 6.439zM684.572 94.1491c5.003.5156 8.382-2.0395 9.652-3.4487-.474 1.6669-4.25 7.253-10.198 6.3869s-7.135-7.4353-7.655-9.3772c.367.9967 2.833 5.8857 8.201 6.439zm-529.323-4.9223c4.962-.8824 7.678-4.2926 8.6-6.0093-.095 1.7468-2.532 8.2045-8.487 9.0083-5.954.8038-8.543-5.2357-9.472-6.9743.574.8647 4.034 4.9223 9.359 3.9753z"/><path fill="#cea6ff" d="M143.791 15.9295c-5.002-.5156-8.382 2.0395-9.651 3.4487.474-1.667 4.25-7.2531 10.198-6.3869 5.948.8661 7.134 7.4352 7.655 9.3772-.368-.9968-2.833-5.8857-8.202-6.439z"/><path fill="#9853f7" d="M261.279 123.86c4.972.806 8.464-1.55 9.797-2.883-.551 1.637-4.579 6.996-10.479 5.786-5.9-1.211-6.783-7.84-7.213-9.81.321 1.017 2.558 6.043 7.895 6.907zm278.305-41.7315c3.516.3623 5.89-1.4331 6.782-2.4233-.333 1.1713-2.986 5.0965-7.166 4.4879-4.179-.6086-5.013-5.2245-5.379-6.5891.258.7004 1.991 4.1357 5.763 4.5245zM359.591 97.942c4.972.8056 8.464-1.5498 9.797-2.8833-.551 1.6372-4.579 6.9963-10.479 5.7853-5.9-1.2101-6.782-7.8394-7.212-9.809.32 1.0168 2.558 6.0425 7.894 6.907zm132.671 16.392c4.972.806 8.465-1.55 9.797-2.883-.55 1.637-4.578 6.996-10.478 5.786-5.9-1.211-6.783-7.84-7.213-9.81.321 1.017 2.558 6.043 7.894 6.907zm309.415-19.3941c3.515.3622 5.89-1.4332 6.782-2.4234-.333 1.1714-2.987 5.0966-7.166 4.4879-4.179-.6086-5.013-5.2245-5.379-6.5891.258.7004 1.991 4.1358 5.763 4.5246zM150.639 134.355c5.003.515 9.011-.705 10.28-2.114-.474 1.667-3.735 5.3-9.683 4.434-5.948-.867-7.649-5.483-8.169-7.425.367.997 2.203 4.551 7.572 5.105zm-21.986-77.9449c3.993.5155 7.192-.7047 8.205-2.1139-.378 1.667-2.981 5.3-7.728 4.4339-4.747-.8662-6.105-5.4822-6.52-7.4241.293.9967 1.759 4.5507 6.043 5.1041z"/><path fill="#cea6ff" d="M540.172 17.3611c-3.778-.5779-6.331 2.2863-7.29 3.866.359-1.8687 3.21-8.1306 7.703-7.1597 4.492.971 5.389 8.3349 5.782 10.5118-.278-1.1174-2.14-6.5978-6.195-7.2181zm-97.787 8.5258c-3.778-.4715-6.33 1.8652-7.289 3.1539.358-1.5245 3.21-6.633 7.702-5.8409 4.493.7921 5.389 6.7996 5.782 8.5756-.277-.9116-2.14-5.3826-6.195-5.8886zM841.79 69.5425c-3.779-.5779-6.331 2.2863-7.29 3.866.358-1.8687 3.21-8.1306 7.703-7.1597 4.492.971 5.389 8.3349 5.782 10.5118-.278-1.1174-2.14-6.5978-6.195-7.2181zm25.048-49.7613c-3.778-.3842-6.331 1.5197-7.29 2.5698.358-1.2421 3.21-5.4045 7.703-4.7591 4.492.6453 5.389 5.5402 5.782 6.9873-.278-.7428-2.14-4.3857-6.195-4.798z"/><path fill="#9853f7" d="M303.495 88.5155c3.494.566 5.948-1.089 6.884-2.0261-.386 1.1505-3.217 4.9162-7.362 4.0656-4.146-.8507-4.767-5.5089-5.069-6.8928.226.7144 1.798 4.2458 5.547 4.8533zm-26.429 48.5205c3.494.566 5.948-1.089 6.884-2.026-.387 1.15-3.217 4.916-7.363 4.065-4.145-.85-4.766-5.509-5.068-6.893.225.715 1.798 4.246 5.547 4.854zm71.897 0c3.494.566 5.948-1.089 6.884-2.026-.386 1.15-3.217 4.916-7.363 4.065-4.145-.85-4.766-5.509-5.068-6.893.226.715 1.798 4.246 5.547 4.854z"/><path fill="#cea6ff" d="M606.623 64.2943c-4.961.8824-7.677 4.2926-8.599 6.0094.094-1.7468 2.531-8.2046 8.486-9.0084s8.543 5.2357 9.473 6.9743c-.574-.8647-4.035-4.9223-9.36-3.9753zm23.367 33.369c-4.962.8824-7.678 4.2927-8.6 6.0097.094-1.747 2.531-8.2049 8.486-9.0087 5.955-.8037 8.544 5.2357 9.473 6.9747-.574-.865-4.034-4.9227-9.359-3.9757zm175.942-79.0234c-4.962.8823-7.678 4.2926-8.6 6.0093.095-1.7468 2.532-8.2046 8.487-9.0083 5.954-.8038 8.543 5.2356 9.472 6.9742-.574-.8647-4.034-4.9222-9.359-3.9752zm-118.021 1.6554c-4.962.8824-7.678 4.2927-8.6 6.0094.095-1.7468 2.532-8.2046 8.487-9.0083 5.954-.8038 8.543 5.2356 9.472 6.9742-.574-.8647-4.034-4.9222-9.359-3.9753z"/><path fill="#9853f7" d="M618.083 137.592c5.003.515 8.382-2.04 9.651-3.449-.474 1.667-4.25 7.253-10.198 6.387s-7.134-7.435-7.654-9.377c.367.996 2.832 5.885 8.201 6.439z"/><path fill="#cea6ff" d="M341.326 16.6779c-5.002-.5156-8.382 2.0396-9.651 3.4488.474-1.667 4.25-7.2531 10.198-6.387 5.948.8662 7.134 7.4353 7.655 9.3772-.368-.9967-2.833-5.8857-8.202-6.439zm106.852 84.3101c-5.002-.515-8.381 2.04-9.651 3.449.474-1.667 4.25-7.2532 10.198-6.3871 5.948.8662 7.135 7.4351 7.655 9.3771-.367-.997-2.833-5.886-8.202-6.439z"/><path fill="#9853f7" d="M89.1274 134.046c5.0025.516 9.0106-.705 10.2803-2.114-.4742 1.667-3.7358 5.3-9.6837 4.434-5.9478-.866-7.649-5.482-8.1691-7.424.3671.997 2.2038 4.551 7.5725 5.104zm-59.5939 3.173c5.0024.515 9.0105-.705 10.2803-2.114-.4743 1.667-3.7358 5.3-9.6837 4.434s-7.6491-5.482-8.1692-7.424c.3672.997 2.2038 4.551 7.5726 5.104z"/><path fill="#cea6ff" d="M611.233 19.1665c-5.002-.5155-9.01.7047-10.28 2.1139.474-1.667 3.736-5.3 9.684-4.4339 5.948.8662 7.649 5.4822 8.169 7.4241-.367-.9967-2.204-4.5507-7.573-5.1041z"/><g mask="url(#g)"><path fill="#9853f7" d="M394.159 137.782c-6.058-4.295-6.853-17.905 0-21.363-2.351 0-7.201-.402-7.797 0-.744.502-5.411 7.251-6.355 8.423-.943 1.171 1.391 23.929 1.49 25.1s22.642 7.92 24.032 7.92 47.12-2.398 48.163-2.677c.834-.223 28.98.242 42.949.502 7.316-1.208 22.086-3.849 22.642-4.741.695-1.116-.745-15.228-.695-16.957.049-1.729-.447-6.247-6.256-4.295 7.795 14.893-10.676 18.575-13.605 9.817-16.336 13.052-26.317-7.084-22.542-17.849-1.887 3.793-8.839 3.57-9.683-2.398-5.313 9.036-13.456 4.797-17.279 2.398-3.932 11.111-13.621 8.125-17.974 5.243-.232 3.273-.497 11.993-9.484 15.953-7.706 3.396-13.224-1.822-15.442-5.801-2.035 1.673-6.388 4.821-12.164.725z"/><path fill="#cea6ff" d="M443.314 87.9161c-4.608-2.7666-10.56-.8552-12.96.4463 10.775-.8368 14.499 8.7015 16.634 13.1076 2.234-16.0638 15.293-19.7452 24.777-18.2392-12.662-5.6895-21.301-2.3427-28.451 4.6853zm-16.882-70.0017c-10.805 1.0709-12.347 12.6803-11.768 18.3511-1.125-3.2166-3.386-9.7389-3.425-10.0959-.05-.4462 3.674-14.2235 4.32-14.6698.645-.4462 24.975-10.04 26.216-10.3747 1.241-.3347 27.905 2.6216 28.203 2.7331.238.0893 7.944 12.8663 11.767 19.2436l1.093 16.4546c-1.324-.0743-4.956.0223-8.888 1.004 8.491-15.3948-3.526-20.4707-7.299-20.136 3.327-4.2392-1.937-9.5939-4.519-5.9125-7.895-8.0879-21.053 0-21.598 10.6537-.199-2.8633-3.298-8.3221-14.102-7.2512z"/><path fill="#9853f7" d="M445.598 54.1145c-3.853 6.9612-11.006 4.8342-14.102 2.9005 9.335 7.2512 10.576 6.303 17.23 8.0321 9.414 1.9634 11.106-2.008 10.775-4.2392-7.101 1.8407-13.506-2.3426-13.903-6.6934z"/></g></svg>